<svg width="24" height="25" viewBox="0 0 24 25" fill="none" xmlns="http://www.w3.org/2000/svg">
<path d="M22 7.26003L21 3.26003C20.9452 3.03815 20.8162 2.84172 20.6342 2.70344C20.4523 2.56516 20.2284 2.49337 20 2.50003H16C15.7348 2.50003 15.4804 2.60538 15.2929 2.79292C15.1054 2.98046 15 3.23481 15 3.50003C15 3.76524 15.1054 4.0196 15.2929 4.20713C15.4804 4.39467 15.7348 4.50003 16 4.50003H18.12C13.79 10.19 5.9 11.5 3 11.5C2.73478 11.5 2.48043 11.6054 2.29289 11.7929C2.10536 11.9805 2 12.2348 2 12.5C2 12.7652 2.10536 13.0196 2.29289 13.2071C2.48043 13.3947 2.73478 13.5 3 13.5C6.16 13.5 14.71 12.05 19.56 5.87003L20 7.74003C20.0315 7.87135 20.0886 7.99518 20.168 8.10444C20.2473 8.21371 20.3475 8.30627 20.4626 8.37684C20.5777 8.44741 20.7057 8.49461 20.839 8.51575C20.9724 8.53689 21.1087 8.53154 21.24 8.50003C21.3713 8.46851 21.4951 8.41144 21.6044 8.33206C21.7137 8.25269 21.8062 8.15257 21.8768 8.03743C21.9474 7.92228 21.9946 7.79437 22.0157 7.66098C22.0369 7.52759 22.0315 7.39135 22 7.26003Z" fill="#376BF2"/>
<path d="M23 11.5V21.5C23 21.7652 22.8946 22.0196 22.7071 22.2071C22.5196 22.3947 22.2652 22.5 22 22.5H19C18.7348 22.5 18.4804 22.3947 18.2929 22.2071C18.1054 22.0196 18 21.7652 18 21.5V16.5V11.5C18 11.2348 18.1054 10.9805 18.2929 10.7929C18.4804 10.6054 18.7348 10.5 19 10.5H22C22.2652 10.5 22.5196 10.6054 22.7071 10.7929C22.8946 10.9805 23 11.2348 23 11.5ZM14 14.5H11C10.7348 14.5 10.4804 14.6054 10.2929 14.7929C10.1054 14.9805 10 15.2348 10 15.5V21.5C10 21.7652 10.1054 22.0196 10.2929 22.2071C10.4804 22.3947 10.7348 22.5 11 22.5H14C14.2652 22.5 14.5196 22.3947 14.7071 22.2071C14.8946 22.0196 15 21.7652 15 21.5V15.5C15 15.2348 14.8946 14.9805 14.7071 14.7929C14.5196 14.6054 14.2652 14.5 14 14.5ZM6 16.5H3C2.73478 16.5 2.48043 16.6054 2.29289 16.7929C2.10536 16.9805 2 17.2348 2 17.5V21.5C2 21.7652 2.10536 22.0196 2.29289 22.2071C2.48043 22.3947 2.73478 22.5 3 22.5H6C6.26522 22.5 6.51957 22.3947 6.70711 22.2071C6.89464 22.0196 7 21.7652 7 21.5V17.5C7 17.2348 6.89464 16.9805 6.70711 16.7929C6.51957 16.6054 6.26522 16.5 6 16.5Z" fill="black"/>
</svg>
