<svg width="24" height="25" viewBox="0 0 24 25" fill="none" xmlns="http://www.w3.org/2000/svg">
<path d="M18.5 20.8C18.5 21.0967 18.412 21.3867 18.2472 21.6333C18.0824 21.88 17.8481 22.0723 17.574 22.1858C17.2999 22.2993 16.9983 22.329 16.7074 22.2712C16.4164 22.2133 16.1491 22.0704 15.9393 21.8606C15.7296 21.6509 15.5867 21.3836 15.5288 21.0926C15.4709 20.8017 15.5006 20.5001 15.6142 20.226C15.7277 19.9519 15.92 19.7176 16.1666 19.5528C16.4133 19.388 16.7033 19.3 17 19.3C17.3978 19.3 17.7794 19.458 18.0607 19.7393C18.342 20.0206 18.5 20.4022 18.5 20.8ZM11 19.3C10.7033 19.3 10.4133 19.388 10.1666 19.5528C9.91997 19.7176 9.72771 19.9519 9.61418 20.226C9.50065 20.5001 9.47094 20.8017 9.52882 21.0926C9.5867 21.3836 9.72956 21.6509 9.93934 21.8606C10.1491 22.0704 10.4164 22.2133 10.7074 22.2712C10.9983 22.329 11.2999 22.2993 11.574 22.1858C11.8481 22.0723 12.0824 21.88 12.2472 21.6333C12.412 21.3867 12.5 21.0967 12.5 20.8C12.5 20.4022 12.342 20.0206 12.0607 19.7393C11.7794 19.458 11.3978 19.3 11 19.3Z" fill="black"/>
<path d="M18.2 14.3C18.4003 14.3002 18.596 14.2402 18.7618 14.1279C18.9276 14.0156 19.0559 13.8561 19.13 13.67L21.93 6.66999C21.9904 6.51856 22.0129 6.35467 21.9954 6.19258C21.978 6.03048 21.9212 5.87511 21.83 5.73999C21.7383 5.60428 21.6146 5.49318 21.4699 5.41646C21.3252 5.33974 21.1638 5.29974 21 5.29999H7.88L7.18 3.55999C7.03179 3.18786 6.77526 2.8688 6.44363 2.64415C6.112 2.4195 5.72056 2.2996 5.32 2.29999H3C2.73478 2.29999 2.48043 2.40535 2.29289 2.59288C2.10536 2.78042 2 3.03477 2 3.29999C2 3.56521 2.10536 3.81956 2.29289 4.0071C2.48043 4.19463 2.73478 4.29999 3 4.29999H5.32L8.9 13.3L7.83 15.41C7.67852 15.7148 7.60735 16.0533 7.62324 16.3933C7.63913 16.7334 7.74154 17.0637 7.92078 17.3531C8.10002 17.6425 8.35016 17.8813 8.64752 18.047C8.94487 18.2127 9.27959 18.2998 9.62 18.3H19C19.2652 18.3 19.5196 18.1946 19.7071 18.0071C19.8946 17.8196 20 17.5652 20 17.3C20 17.0348 19.8946 16.7804 19.7071 16.5929C19.5196 16.4053 19.2652 16.3 19 16.3H9.62L10.62 14.3H18.2Z" fill="black"/>
</svg>
