<svg width="43" height="44" viewBox="0 0 43 44" fill="none" xmlns="http://www.w3.org/2000/svg">
<path d="M32.1666 21.9545C32.1666 27.8205 27.391 32.5758 21.5 32.5758M32.1666 21.9545C32.1666 16.0886 27.391 11.3333 21.5 11.3333M32.1666 21.9545H10.8333M21.5 32.5758C15.6089 32.5758 10.8333 27.8205 10.8333 21.9545M21.5 32.5758C21.5 32.5758 17.3518 29.0354 17.3518 21.9545C17.3518 14.8737 21.5 11.3333 21.5 11.3333M21.5 32.5758C21.5 32.5758 25.6481 29.0354 25.6481 21.9545C25.6481 14.8737 21.5 11.3333 21.5 11.3333M10.8333 21.9545C10.8333 16.0886 15.6089 11.3333 21.5 11.3333M30.3889 16.6439H12.6111M30.3889 27.2652H12.6111" stroke="black" stroke-width="1.5" stroke-linejoin="round"/>
</svg>
