<svg width="550" height="618" viewBox="0 0 550 618" fill="none" xmlns="http://www.w3.org/2000/svg">
<g clip-path="url(#clip0_12_810)">
<path d="M265.818 527.99C390.313 527.99 491.235 427.067 491.235 302.573C491.235 178.078 390.313 77.1553 265.818 77.1553C141.323 77.1553 40.4006 178.078 40.4006 302.573C40.4006 427.067 141.323 527.99 265.818 527.99Z" fill="url(#paint0_linear_12_810)"/>
<mask id="mask0_12_810" style="mask-type:luminance" maskUnits="userSpaceOnUse" x="7" y="83" width="324" height="266">
<path d="M312.187 83.5825H25.7095C15.5674 83.5825 7.34558 91.8043 7.34558 101.946V329.659C7.34558 339.801 15.5674 348.023 25.7095 348.023H312.187C322.329 348.023 330.551 339.801 330.551 329.659V101.946C330.551 91.8043 322.329 83.5825 312.187 83.5825Z" fill="white"/>
</mask>
<g mask="url(#mask0_12_810)">
<path d="M330.551 83.5825H7.34558V107.456H330.551V83.5825Z" fill="url(#paint1_linear_12_810)"/>
<path d="M330.551 107.456H7.34558V348.023H330.551V107.456Z" fill="url(#paint2_linear_12_810)"/>
<path d="M32.3205 121.248C32.3205 121.248 25.7095 120.656 25.7095 125.981C25.7095 131.306 32.3205 130.714 32.3205 130.714H305.576C305.576 130.714 312.187 130.714 312.187 125.981C312.187 121.248 305.576 121.248 305.576 121.248H32.3205Z" fill="url(#paint3_linear_12_810)"/>
<path d="M57.1119 149.648C52.4283 149.646 50.5126 150.58 50.5009 156.747V212.362C50.5515 217.813 51.9984 219.335 57.1119 219.462H280.785C286.196 219.4 287.438 217.66 287.396 212.362V156.747C287.508 151.088 285.953 149.636 280.785 149.648H57.1119Z" fill="url(#paint4_linear_12_810)"/>
<path d="M32.3205 238.394C32.3205 238.394 25.7095 238.394 25.7095 243.128C25.7095 247.861 32.3205 247.861 32.3205 247.861H305.576C305.576 247.861 312.187 247.861 312.187 243.128C312.187 238.394 305.576 238.394 305.576 238.394H32.3205Z" fill="url(#paint5_linear_12_810)"/>
<path d="M305.576 262.061C305.576 262.061 312.187 262.061 312.187 266.794C312.187 271.526 305.576 271.526 305.576 271.526H32.3205C32.3205 271.526 25.7095 271.526 25.7095 266.794C25.7095 262.061 32.3205 262.061 32.3205 262.061H305.576Z" fill="url(#paint6_linear_12_810)"/>
<path d="M305.576 285.726C305.576 285.726 312.187 285.726 312.187 290.46C312.187 295.193 305.576 295.193 305.576 295.193H32.3205C32.3205 295.193 25.7095 295.193 25.7095 290.46C25.7095 285.726 32.3205 285.726 32.3205 285.726H305.576Z" fill="url(#paint7_linear_12_810)"/>
<path d="M32.3205 314.125C27.2317 314.066 25.7179 315.505 25.7095 321.226C25.7095 321.226 25.7095 321.245 25.7095 327.142C25.7095 333.039 27.9131 334.222 32.3205 334.242C36.7278 334.261 55.4591 334.242 55.4591 334.242C60.4476 334.168 62.0119 332.615 62.0701 327.142V321.226C62.0699 315.639 60.5389 314.176 55.4591 314.125H32.3205Z" fill="url(#paint8_linear_12_810)"/>
<path d="M79.6995 314.125C75.2922 314.125 73.0885 316.472 73.0885 321.226C73.0885 325.978 73.0885 322.429 73.0885 327.142C73.0885 331.856 75.2922 334.242 79.6995 334.242C84.1069 334.242 98.4307 334.261 102.838 334.242C107.245 334.222 109.449 331.856 109.449 327.142C109.449 322.429 109.449 325.978 109.449 321.226C109.449 316.472 107.245 314.106 102.838 314.125C98.4307 314.146 84.1069 314.125 79.6995 314.125Z" fill="url(#paint9_linear_12_810)"/>
</g>
<path d="M362.688 202.729C362.688 207.8 358.577 211.911 353.506 211.911H220.367C215.296 211.911 211.185 207.8 211.185 202.729V9.20858C211.185 4.13752 215.296 0.0266113 220.367 0.0266113H317.696L362.688 47.7729V202.729Z" fill="url(#paint10_linear_12_810)"/>
<path d="M228.751 21.9836C225.458 21.9836 222.164 25.2771 222.164 28.5707V31.8643C222.178 35.1578 225.444 38.4513 228.751 38.4513H332.387C335.681 38.4513 338.974 35.1578 338.974 31.8643V28.5707C338.974 25.2771 335.681 21.9836 332.387 21.9836H228.751Z" fill="url(#paint11_linear_12_810)"/>
<path d="M246.865 56.0167C246.865 52.7232 250.159 49.4297 253.453 49.4297H320.421C323.715 49.4297 327.008 52.7232 327.008 56.0167V89.5509C327.008 92.8444 324.813 96.138 321.519 96.138H253.453C250.159 96.138 246.865 92.8444 246.865 89.5509V56.0167Z" fill="url(#paint12_linear_12_810)"/>
<path d="M228.751 108.374C228.751 108.374 222.164 108.374 222.164 111.667C222.164 114.961 228.751 114.961 228.751 114.961H345.123C345.123 114.961 351.71 114.961 351.71 111.667C351.71 108.374 345.123 108.374 345.123 108.374H228.751Z" fill="url(#paint13_linear_12_810)"/>
<path d="M228.751 125.939C228.751 125.939 222.164 125.939 222.164 129.233C222.164 132.526 228.751 132.526 228.751 132.526H345.123C345.123 132.526 351.71 132.526 351.71 129.233C351.71 125.939 345.123 125.939 345.123 125.939H228.751Z" fill="url(#paint14_linear_12_810)"/>
<path d="M228.751 142.956C228.751 142.956 222.164 142.956 222.164 146.249C222.164 149.543 228.751 149.543 228.751 149.543H345.123C345.123 149.543 351.71 149.543 351.71 146.249C351.71 142.956 345.123 142.956 345.123 142.956H228.751Z" fill="url(#paint15_linear_12_810)"/>
<path d="M228.751 158.875C228.751 158.875 222.164 158.875 222.164 162.168C222.164 165.462 228.751 165.462 228.751 165.462H345.123C345.123 165.462 351.71 165.462 351.71 162.168C351.71 158.875 345.123 158.875 345.123 158.875H228.751Z" fill="url(#paint16_linear_12_810)"/>
<path d="M362.688 47.7729L317.696 0.0266113V38.5086C317.652 43.4957 321.729 47.7395 326.981 47.7729H362.688Z" fill="url(#paint17_linear_12_810)"/>
<path d="M265.359 463.716C354.103 463.716 426.043 391.775 426.043 303.032C426.043 214.288 354.103 142.347 265.359 142.347C176.615 142.347 104.674 214.288 104.674 303.032C104.674 391.775 176.615 463.716 265.359 463.716Z" fill="url(#paint18_linear_12_810)"/>
<path d="M501.7 288.499C508.61 299.235 513.749 311.169 516.775 323.959H534.826C538.576 323.929 542.691 328.084 542.642 331.976V368.709C542.628 372.029 538.754 376.396 534.826 376.379H517.003C514.091 389.283 509.009 401.389 502.156 412.295L514.505 424.981C516.71 427.255 517.339 432.975 515.287 435.142L488.714 461.714C486.094 464.058 480.386 464.132 477.772 461.714L465.041 449.126C454.135 455.921 441.971 460.889 429.01 463.744V482.816C429.103 486.409 425.123 490.685 421.5 490.632H384.767C381.238 490.768 376.934 486.805 376.991 482.816V463.172C364.656 460.203 353.065 455.236 342.615 448.669L327.714 463.277C325.337 465.282 319.825 465.465 317.553 463.277L290.98 436.705C288.141 433.411 288.899 428.363 290.98 425.763L305.785 411.553C301.331 404.415 297.677 396.707 294.879 388.598C294.879 388.484 294.821 388.427 294.821 388.37C294.764 388.141 294.65 387.913 294.593 387.685C293.451 384.316 292.424 380.947 291.567 377.52H270.66C267.086 377.556 262.825 373.445 262.845 369.491V331.976C263.032 328.487 267.25 325.248 270.66 325.158H290.996C293.223 316.194 296.478 307.229 300.76 299.063C302.131 296.322 303.558 293.695 305.157 291.069L290.199 275.704C288.51 273.234 288.61 268.308 290.199 266.326L316.772 239.753C319.898 236.627 324.587 236.627 327.714 239.753L341.588 253.497C352.152 246.644 363.915 241.505 376.476 238.422V218.651C376.52 215.135 380.811 210.98 383.985 210.842H421.5C425.183 210.744 429.242 214.853 429.067 218.651V237.794C441.744 240.591 453.621 245.388 464.355 251.955L478.554 238.189C480.796 236.432 486.394 236.531 488.714 238.189L515.287 264.763C516.923 266.656 516.95 272.545 515.287 274.923L501.7 288.499Z" fill="url(#paint19_linear_12_810)"/>
<path d="M403.276 415.878C439.549 415.878 468.953 386.473 468.953 350.2C468.953 313.928 439.549 284.523 403.276 284.523C367.003 284.523 337.598 313.928 337.598 350.2C337.598 386.473 367.003 415.878 403.276 415.878Z" fill="url(#paint20_linear_12_810)"/>
<path d="M388.329 367.383C388.329 357.585 382.363 346.187 375.015 341.945L206.503 244.654C199.154 240.411 193.189 244.922 193.189 254.719V396.735C193.189 406.534 199.154 417.932 206.503 422.175L375.015 519.465C382.363 523.707 388.329 519.197 388.329 509.4V367.383Z" fill="url(#paint21_linear_12_810)"/>
<path d="M202.026 242.069C198.939 240.287 194.261 240.093 191.586 241.636L186.742 244.434C185.232 245.306 185.423 246.829 187.164 247.834L377.885 357.947C384.742 353.988 383.881 347.063 375.963 342.492L202.026 242.069Z" fill="url(#paint22_linear_12_810)"/>
<path d="M386.812 363.948C386.812 355.479 381.655 351.58 375.303 355.248C374.725 355.581 374.257 356.477 374.257 357.247V521.329C374.257 523.639 375.663 524.703 377.395 523.703L383.422 520.223C385.293 519.143 386.812 516.241 386.812 513.746V363.948Z" fill="url(#paint23_linear_12_810)"/>
<path d="M381.918 365.279C381.918 358.711 377.918 351.071 372.993 348.227L194.748 245.317C187.711 241.255 181.999 245.574 181.999 254.955V390.946C181.999 400.328 187.711 411.243 194.748 415.306L369.168 516.008C376.205 520.071 381.918 515.751 381.918 506.369V365.279Z" fill="url(#paint24_linear_12_810)"/>
<path d="M376.533 361.857C376.533 359.268 374.957 356.257 373.015 355.136L190.421 249.715C188.479 248.594 186.904 249.785 186.904 252.374V399.338C186.904 401.926 188.479 404.939 190.421 406.06L373.015 511.48C374.957 512.601 376.533 511.409 376.533 508.821V361.857Z" fill="url(#paint25_linear_12_810)"/>
<path d="M185.206 402.492C180.722 399.904 173.929 399.622 170.046 401.864L61.6987 464.418C47.7198 472.489 49.476 486.607 65.617 495.927L229.414 590.494C238.381 595.672 251.966 596.235 259.733 591.751L379.337 522.697C383.221 520.456 382.732 516.535 378.249 513.945L185.206 402.492Z" fill="url(#paint26_linear_12_810)"/>
<path d="M192.375 398.185C187.972 395.643 181.301 395.365 177.487 397.567L65.5534 462.193C54.8758 468.358 56.2169 479.142 68.5466 486.261L232.665 581.014C241.471 586.099 254.813 586.652 262.44 582.248L379.902 514.431C383.715 512.23 383.237 508.378 378.833 505.836L192.375 398.185ZM302.309 314.313L264.643 292.567V295.568C264.643 298.053 266.156 300.944 268.02 302.02L298.933 319.868C300.797 320.943 302.309 319.8 302.309 317.315V314.313Z" fill="url(#paint27_linear_12_810)"/>
<path d="M167.091 538.489L129.424 516.742V522.632C129.424 527.51 132.393 533.182 136.051 535.294L160.463 549.388C164.12 551.501 167.091 549.256 167.091 544.379V538.489Z" fill="url(#paint28_linear_12_810)"/>
<path d="M236.145 446.4L223.59 453.649L236.145 460.898L248.701 453.649L236.145 446.4Z" fill="url(#paint29_linear_12_810)"/>
<path d="M336.59 504.391L324.034 511.64L336.59 518.89L349.144 511.64L336.59 504.391Z" fill="url(#paint30_linear_12_810)"/>
<path d="M173.368 424.653L185.923 417.404L198.479 424.653L185.923 431.902L173.368 424.653Z" fill="url(#paint31_linear_12_810)"/>
<path d="M173.368 424.653L160.812 431.902L173.368 439.152L185.923 431.902L173.368 424.653Z" fill="url(#paint32_linear_12_810)"/>
<path d="M173.368 439.152L160.812 446.4L173.368 453.649L185.923 446.4L173.368 439.152Z" fill="url(#paint33_linear_12_810)"/>
<path d="M173.368 453.649L160.812 460.898L173.368 468.146L185.923 460.898L173.368 453.649Z" fill="url(#paint34_linear_12_810)"/>
<path d="M173.368 468.146L160.812 475.397L173.368 482.645L185.923 475.397L173.368 468.146Z" fill="url(#paint35_linear_12_810)"/>
<path d="M198.478 424.653L185.922 431.902L198.478 439.152L211.033 431.902L198.478 424.653Z" fill="url(#paint36_linear_12_810)"/>
<path d="M185.923 431.902L173.368 439.152L185.923 446.4L198.479 439.152L185.923 431.902Z" fill="url(#paint37_linear_12_810)"/>
<path d="M185.923 446.4L173.368 453.649L185.923 460.898L198.479 453.649L185.923 446.4Z" fill="url(#paint38_linear_12_810)"/>
<path d="M185.923 460.898L173.368 468.146L185.923 475.397L198.479 468.146L185.923 460.898Z" fill="url(#paint39_linear_12_810)"/>
<path d="M185.923 475.396L173.368 482.645L185.923 489.894L198.479 482.645L185.923 475.396Z" fill="url(#paint40_linear_12_810)"/>
<path d="M211.034 431.902L198.478 439.152L211.034 446.4L223.589 439.152L211.034 431.902Z" fill="url(#paint41_linear_12_810)"/>
<path d="M198.478 439.152L185.922 446.4L198.478 453.649L211.033 446.4L198.478 439.152Z" fill="url(#paint42_linear_12_810)"/>
<path d="M198.478 453.649L185.922 460.898L198.478 468.146L211.033 460.898L198.478 453.649Z" fill="url(#paint43_linear_12_810)"/>
<path d="M198.478 468.146L185.922 475.397L198.478 482.645L211.033 475.397L198.478 468.146Z" fill="url(#paint44_linear_12_810)"/>
<path d="M198.478 482.645L185.922 489.893L198.478 497.143L211.033 489.893L198.478 482.645Z" fill="url(#paint45_linear_12_810)"/>
<path d="M223.589 439.152L211.034 446.4L223.589 453.649L236.145 446.4L223.589 439.152Z" fill="url(#paint46_linear_12_810)"/>
<path d="M211.034 446.4L198.478 453.649L211.034 460.898L223.589 453.649L211.034 446.4Z" fill="url(#paint47_linear_12_810)"/>
<path d="M211.034 460.898L198.478 468.146L211.034 475.397L223.589 468.146L211.034 460.898Z" fill="url(#paint48_linear_12_810)"/>
<path d="M211.034 475.396L198.478 482.645L211.034 489.894L223.589 482.645L211.034 475.396Z" fill="url(#paint49_linear_12_810)"/>
<path d="M211.034 489.893L198.478 497.142L211.034 504.391L223.589 497.142L211.034 489.893Z" fill="url(#paint50_linear_12_810)"/>
<path d="M223.589 453.649L211.034 460.898L223.589 468.146L236.145 460.898L223.589 453.649Z" fill="url(#paint51_linear_12_810)"/>
<path d="M223.589 468.146L211.034 475.397L223.589 482.645L236.145 475.397L223.589 468.146Z" fill="url(#paint52_linear_12_810)"/>
<path d="M223.589 482.645L211.034 489.893L223.589 497.143L236.145 489.893L223.589 482.645Z" fill="url(#paint53_linear_12_810)"/>
<path d="M223.589 497.143L211.034 504.391L223.589 511.64L236.145 504.391L223.589 497.143Z" fill="url(#paint54_linear_12_810)"/>
<path d="M248.701 453.649L236.146 460.898L248.701 468.146L261.257 460.898L248.701 453.649Z" fill="url(#paint55_linear_12_810)"/>
<path d="M236.145 460.898L223.59 468.146L236.145 475.397L248.701 468.146L236.145 460.898Z" fill="url(#paint56_linear_12_810)"/>
<path d="M236.145 475.396L223.59 482.645L236.145 489.894L248.701 482.645L236.145 475.396Z" fill="url(#paint57_linear_12_810)"/>
<path d="M236.145 489.893L223.59 497.142L236.145 504.391L248.701 497.142L236.145 489.893Z" fill="url(#paint58_linear_12_810)"/>
<path d="M236.145 504.391L223.59 511.64L236.145 518.89L248.701 511.64L236.145 504.391Z" fill="url(#paint59_linear_12_810)"/>
<path d="M261.256 460.898L248.7 468.146L261.256 475.397L273.812 468.146L261.256 460.898Z" fill="url(#paint60_linear_12_810)"/>
<path d="M248.701 468.146L236.146 475.397L248.701 482.645L261.257 475.397L248.701 468.146Z" fill="url(#paint61_linear_12_810)"/>
<path d="M248.701 482.645L236.146 489.893L248.701 497.143L261.257 489.893L248.701 482.645Z" fill="url(#paint62_linear_12_810)"/>
<path d="M248.701 497.143L236.146 504.391L248.701 511.64L261.257 504.391L248.701 497.143Z" fill="url(#paint63_linear_12_810)"/>
<path d="M273.812 468.146L261.256 475.397L273.812 482.645L286.367 475.397L273.812 468.146Z" fill="url(#paint64_linear_12_810)"/>
<path d="M261.256 475.396L248.7 482.645L261.256 489.894L273.812 482.645L261.256 475.396Z" fill="url(#paint65_linear_12_810)"/>
<path d="M261.256 489.893L248.7 497.142L261.256 504.391L273.812 497.142L261.256 489.893Z" fill="url(#paint66_linear_12_810)"/>
<path d="M261.256 504.391L248.7 511.64L261.256 518.89L273.812 511.64L261.256 504.391Z" fill="url(#paint67_linear_12_810)"/>
<path d="M286.367 475.396L273.811 482.645L286.367 489.894L298.922 482.645L286.367 475.396Z" fill="url(#paint68_linear_12_810)"/>
<path d="M273.812 482.645L261.256 489.893L273.812 497.143L286.367 489.893L273.812 482.645Z" fill="url(#paint69_linear_12_810)"/>
<path d="M273.812 497.143L261.256 504.391L273.812 511.64L286.367 504.391L273.812 497.143Z" fill="url(#paint70_linear_12_810)"/>
<path d="M298.923 482.645L286.367 489.893L298.923 497.143L311.478 489.893L298.923 482.645Z" fill="url(#paint71_linear_12_810)"/>
<path d="M286.367 489.893L273.811 497.142L286.367 504.391L298.922 497.142L286.367 489.893Z" fill="url(#paint72_linear_12_810)"/>
<path d="M286.367 504.391L273.811 511.64L286.367 518.89L298.922 511.64L286.367 504.391Z" fill="url(#paint73_linear_12_810)"/>
<path d="M311.478 489.893L298.923 497.142L311.478 504.391L324.034 497.142L311.478 489.893Z" fill="url(#paint74_linear_12_810)"/>
<path d="M298.923 497.143L286.367 504.391L298.923 511.64L311.478 504.391L298.923 497.143Z" fill="url(#paint75_linear_12_810)"/>
<path d="M324.034 497.143L311.479 504.391L324.034 511.64L336.59 504.391L324.034 497.143Z" fill="url(#paint76_linear_12_810)"/>
<path d="M311.478 504.391L298.923 511.64L311.478 518.89L324.034 511.64L311.478 504.391Z" fill="url(#paint77_linear_12_810)"/>
<path d="M185.923 418.281L174.885 424.653L185.923 431.026L196.961 424.653L185.923 418.281Z" fill="url(#paint78_linear_12_810)"/>
<path d="M198.478 425.529L187.441 431.902L198.478 438.275L209.516 431.902L198.478 425.529Z" fill="url(#paint79_linear_12_810)"/>
<path d="M173.367 425.529L162.33 431.902L173.367 438.275L184.405 431.902L173.367 425.529Z" fill="url(#paint80_linear_12_810)"/>
<path d="M173.367 440.028L162.33 446.4L173.367 452.773L184.405 446.4L173.367 440.028Z" fill="url(#paint81_linear_12_810)"/>
<path d="M173.367 454.525L162.33 460.898L173.367 467.271L184.405 460.898L173.367 454.525Z" fill="url(#paint82_linear_12_810)"/>
<path d="M173.367 469.023L162.33 475.396L173.367 481.768L184.405 475.396L173.367 469.023Z" fill="url(#paint83_linear_12_810)"/>
<path d="M185.923 432.778L174.885 439.152L185.923 445.524L196.961 439.152L185.923 432.778Z" fill="url(#paint84_linear_12_810)"/>
<path d="M185.923 447.277L174.885 453.649L185.923 460.021L196.961 453.649L185.923 447.277Z" fill="url(#paint85_linear_12_810)"/>
<path d="M185.923 461.774L174.885 468.146L185.923 474.52L196.961 468.146L185.923 461.774Z" fill="url(#paint86_linear_12_810)"/>
<path d="M185.923 476.271L174.885 482.645L185.923 489.018L196.961 482.645L185.923 476.271Z" fill="url(#paint87_linear_12_810)"/>
<path d="M211.034 432.778L199.997 439.152L211.034 445.524L222.071 439.152L211.034 432.778Z" fill="url(#paint88_linear_12_810)"/>
<path d="M198.478 440.028L187.441 446.4L198.478 452.773L209.516 446.4L198.478 440.028Z" fill="url(#paint89_linear_12_810)"/>
<path d="M198.478 454.525L187.441 460.898L198.478 467.271L209.516 460.898L198.478 454.525Z" fill="url(#paint90_linear_12_810)"/>
<path d="M198.478 469.023L187.441 475.396L198.478 481.768L209.516 475.396L198.478 469.023Z" fill="url(#paint91_linear_12_810)"/>
<path d="M198.478 483.522L187.441 489.893L198.478 496.266L209.516 489.893L198.478 483.522Z" fill="url(#paint92_linear_12_810)"/>
<path d="M223.59 440.028L212.552 446.4L223.59 452.773L234.627 446.4L223.59 440.028Z" fill="url(#paint93_linear_12_810)"/>
<path d="M211.034 447.277L199.997 453.649L211.034 460.021L222.071 453.649L211.034 447.277Z" fill="url(#paint94_linear_12_810)"/>
<path d="M211.034 461.774L199.997 468.146L211.034 474.52L222.071 468.146L211.034 461.774Z" fill="url(#paint95_linear_12_810)"/>
<path d="M211.034 476.271L199.997 482.645L211.034 489.018L222.071 482.645L211.034 476.271Z" fill="url(#paint96_linear_12_810)"/>
<path d="M211.034 490.77L199.997 497.143L211.034 503.515L222.071 497.143L211.034 490.77Z" fill="url(#paint97_linear_12_810)"/>
<path d="M236.145 447.277L225.108 453.649L236.145 460.021L247.183 453.649L236.145 447.277Z" fill="url(#paint98_linear_12_810)"/>
<path d="M223.59 454.525L212.552 460.898L223.59 467.271L234.627 460.898L223.59 454.525Z" fill="url(#paint99_linear_12_810)"/>
<path d="M223.59 469.023L212.552 475.396L223.59 481.768L234.627 475.396L223.59 469.023Z" fill="url(#paint100_linear_12_810)"/>
<path d="M223.59 483.522L212.552 489.893L223.59 496.266L234.627 489.893L223.59 483.522Z" fill="url(#paint101_linear_12_810)"/>
<path d="M223.59 498.019L212.552 504.391L223.59 510.765L234.627 504.391L223.59 498.019Z" fill="url(#paint102_linear_12_810)"/>
<path d="M248.701 454.525L237.662 460.898L248.701 467.271L259.739 460.898L248.701 454.525Z" fill="url(#paint103_linear_12_810)"/>
<path d="M236.145 461.774L225.108 468.146L236.145 474.52L247.183 468.146L236.145 461.774Z" fill="url(#paint104_linear_12_810)"/>
<path d="M236.145 476.271L225.108 482.645L236.145 489.018L247.183 482.645L236.145 476.271Z" fill="url(#paint105_linear_12_810)"/>
<path d="M236.145 490.77L225.108 497.143L236.145 503.515L247.183 497.143L236.145 490.77Z" fill="url(#paint106_linear_12_810)"/>
<path d="M236.145 505.268L225.108 511.641L236.145 518.014L247.183 511.641L236.145 505.268Z" fill="url(#paint107_linear_12_810)"/>
<path d="M261.256 461.774L250.219 468.146L261.256 474.52L272.294 468.146L261.256 461.774Z" fill="url(#paint108_linear_12_810)"/>
<path d="M248.701 469.023L237.662 475.396L248.701 481.768L259.739 475.396L248.701 469.023Z" fill="url(#paint109_linear_12_810)"/>
<path d="M248.701 483.522L237.662 489.893L248.701 496.266L259.739 489.893L248.701 483.522Z" fill="url(#paint110_linear_12_810)"/>
<path d="M248.701 498.019L237.662 504.391L248.701 510.765L259.739 504.391L248.701 498.019Z" fill="url(#paint111_linear_12_810)"/>
<path d="M273.812 469.023L262.774 475.396L273.812 481.768L284.849 475.396L273.812 469.023Z" fill="url(#paint112_linear_12_810)"/>
<path d="M261.256 476.271L250.219 482.645L261.256 489.018L272.294 482.645L261.256 476.271Z" fill="url(#paint113_linear_12_810)"/>
<path d="M261.256 490.77L250.219 497.143L261.256 503.515L272.294 497.143L261.256 490.77Z" fill="url(#paint114_linear_12_810)"/>
<path d="M261.256 505.268L250.219 511.641L261.256 518.014L272.294 511.641L261.256 505.268Z" fill="url(#paint115_linear_12_810)"/>
<path d="M286.367 476.271L275.33 482.645L286.367 489.018L297.405 482.645L286.367 476.271Z" fill="url(#paint116_linear_12_810)"/>
<path d="M273.812 483.522L262.774 489.893L273.812 496.266L284.849 489.893L273.812 483.522Z" fill="url(#paint117_linear_12_810)"/>
<path d="M273.812 498.019L262.774 504.391L273.812 510.765L284.849 504.391L273.812 498.019Z" fill="url(#paint118_linear_12_810)"/>
<path d="M298.923 483.522L287.885 489.893L298.923 496.266L309.96 489.893L298.923 483.522Z" fill="url(#paint119_linear_12_810)"/>
<path d="M286.367 490.77L275.33 497.143L286.367 503.515L297.405 497.143L286.367 490.77Z" fill="url(#paint120_linear_12_810)"/>
<path d="M286.367 505.268L275.33 511.641L286.367 518.014L297.405 511.641L286.367 505.268Z" fill="url(#paint121_linear_12_810)"/>
<path d="M311.478 490.77L300.44 497.143L311.478 503.515L322.516 497.143L311.478 490.77Z" fill="url(#paint122_linear_12_810)"/>
<path d="M298.923 498.019L287.885 504.391L298.923 510.765L309.96 504.391L298.923 498.019Z" fill="url(#paint123_linear_12_810)"/>
<path d="M324.034 498.019L312.996 504.391L324.034 510.765L335.071 504.391L324.034 498.019Z" fill="url(#paint124_linear_12_810)"/>
<path d="M311.478 505.268L300.44 511.641L311.478 518.014L322.516 511.641L311.478 505.268Z" fill="url(#paint125_linear_12_810)"/>
<path d="M336.589 505.268L325.551 511.641L336.589 518.014L347.627 511.641L336.589 505.268Z" fill="url(#paint126_linear_12_810)"/>
<path d="M159.5 489.136C156.728 487.536 152.529 487.362 150.129 488.747L110.987 511.347L186.32 554.84L225.462 532.241C227.863 530.856 227.56 528.432 224.789 526.831L159.5 489.136Z" fill="url(#paint127_linear_12_810)"/>
<path d="M381.666 403.974L381.669 403.972L381.675 403.969C383.02 403.54 384.513 403.795 385.922 404.845L433.351 448.39C435.982 450.318 435.937 456.093 434.63 460.684L392.973 607.302C392.236 609.89 390.748 611.582 389.013 612.132L381.366 614.307L379.838 609.608L381.044 609.103L338.326 568.142C335.101 565.735 333.545 560.061 334.851 555.471L375.954 410.137L373.547 409.685L373.654 405.604L381.666 403.974Z" fill="url(#paint128_linear_12_810)"/>
<path d="M331.798 569.398L377.276 613.387C380.502 615.793 384.175 614.023 385.481 609.433L427.808 460.658C429.114 456.068 427.558 450.394 424.333 447.987L378.223 405.999C374.998 403.592 371.324 405.362 370.018 409.953L328.322 556.727C327.016 561.318 328.572 566.991 331.798 569.398Z" fill="url(#paint129_linear_12_810)"/>
<path d="M334.77 546.857L385.721 595.571L421.704 469.092L369.652 424.087L334.77 546.857Z" fill="url(#paint130_linear_12_810)"/>
<path d="M350.277 578.931C349.476 576.506 350.088 573.763 351.646 572.803C353.202 571.844 355.113 573.031 355.913 575.455C356.714 577.879 356.102 580.623 354.544 581.583C352.988 582.543 351.077 581.355 350.277 578.931Z" fill="url(#paint131_linear_12_810)"/>
<path d="M389.065 429.602L406.318 445.481C407.051 446.029 407.886 445.622 408.184 444.579C408.48 443.536 408.179 442.054 407.446 441.507L390.194 425.627C389.462 425.08 388.337 425.404 388.04 426.447C387.742 427.49 388.332 429.057 389.065 429.602Z" fill="url(#paint132_linear_12_810)"/>
</g>
<defs>
<linearGradient id="paint0_linear_12_810" x1="423.775" y1="136.389" x2="121.025" y2="473.692" gradientUnits="userSpaceOnUse">
<stop stop-color="#144CDC"/>
<stop offset="1" stop-color="#4BFA91"/>
</linearGradient>
<linearGradient id="paint1_linear_12_810" x1="408.12" y1="57.8733" x2="-62.8136" y2="89.4007" gradientUnits="userSpaceOnUse">
<stop stop-color="white"/>
<stop offset="0.645" stop-color="#1754F0"/>
<stop offset="1" stop-color="#00113C"/>
</linearGradient>
<linearGradient id="paint2_linear_12_810" x1="-114.321" y1="403.958" x2="353.32" y2="223.75" gradientUnits="userSpaceOnUse">
<stop stop-color="white"/>
<stop offset="0.645" stop-color="#1754F0"/>
<stop offset="1" stop-color="#00113C"/>
</linearGradient>
<linearGradient id="paint3_linear_12_810" x1="247.946" y1="144.183" x2="110.593" y2="322.716" gradientUnits="userSpaceOnUse">
<stop stop-color="#144CDC"/>
<stop offset="1" stop-color="#4BFA91"/>
</linearGradient>
<linearGradient id="paint4_linear_12_810" x1="247.946" y1="144.184" x2="110.593" y2="322.716" gradientUnits="userSpaceOnUse">
<stop stop-color="#144CDC"/>
<stop offset="1" stop-color="#4BFA91"/>
</linearGradient>
<linearGradient id="paint5_linear_12_810" x1="247.946" y1="144.184" x2="110.593" y2="322.716" gradientUnits="userSpaceOnUse">
<stop stop-color="#144CDC"/>
<stop offset="1" stop-color="#4BFA91"/>
</linearGradient>
<linearGradient id="paint6_linear_12_810" x1="247.946" y1="144.184" x2="110.594" y2="322.716" gradientUnits="userSpaceOnUse">
<stop stop-color="#144CDC"/>
<stop offset="1" stop-color="#4BFA91"/>
</linearGradient>
<linearGradient id="paint7_linear_12_810" x1="247.946" y1="144.183" x2="110.593" y2="322.716" gradientUnits="userSpaceOnUse">
<stop stop-color="#144CDC"/>
<stop offset="1" stop-color="#4BFA91"/>
</linearGradient>
<linearGradient id="paint8_linear_12_810" x1="247.946" y1="144.183" x2="110.593" y2="322.716" gradientUnits="userSpaceOnUse">
<stop stop-color="#144CDC"/>
<stop offset="1" stop-color="#4BFA91"/>
</linearGradient>
<linearGradient id="paint9_linear_12_810" x1="247.946" y1="144.184" x2="110.593" y2="322.716" gradientUnits="userSpaceOnUse">
<stop stop-color="#144CDC"/>
<stop offset="1" stop-color="#4BFA91"/>
</linearGradient>
<linearGradient id="paint10_linear_12_810" x1="237.813" y1="-78.9383" x2="286.163" y2="255.37" gradientUnits="userSpaceOnUse">
<stop stop-color="white"/>
<stop offset="0.645" stop-color="#1754F0"/>
<stop offset="1" stop-color="#00113C"/>
</linearGradient>
<linearGradient id="paint11_linear_12_810" x1="379.674" y1="50.9866" x2="251.323" y2="134.799" gradientUnits="userSpaceOnUse">
<stop stop-color="#144CDC"/>
<stop offset="1" stop-color="#4BFA91"/>
</linearGradient>
<linearGradient id="paint12_linear_12_810" x1="379.674" y1="50.9866" x2="251.323" y2="134.799" gradientUnits="userSpaceOnUse">
<stop stop-color="#144CDC"/>
<stop offset="1" stop-color="#4BFA91"/>
</linearGradient>
<linearGradient id="paint13_linear_12_810" x1="379.674" y1="50.9865" x2="251.323" y2="134.799" gradientUnits="userSpaceOnUse">
<stop stop-color="#144CDC"/>
<stop offset="1" stop-color="#4BFA91"/>
</linearGradient>
<linearGradient id="paint14_linear_12_810" x1="379.674" y1="50.9867" x2="251.324" y2="134.799" gradientUnits="userSpaceOnUse">
<stop stop-color="#144CDC"/>
<stop offset="1" stop-color="#4BFA91"/>
</linearGradient>
<linearGradient id="paint15_linear_12_810" x1="379.674" y1="50.9863" x2="251.323" y2="134.798" gradientUnits="userSpaceOnUse">
<stop stop-color="#144CDC"/>
<stop offset="1" stop-color="#4BFA91"/>
</linearGradient>
<linearGradient id="paint16_linear_12_810" x1="379.674" y1="50.9867" x2="251.323" y2="134.799" gradientUnits="userSpaceOnUse">
<stop stop-color="#144CDC"/>
<stop offset="1" stop-color="#4BFA91"/>
</linearGradient>
<linearGradient id="paint17_linear_12_810" x1="306.101" y1="23.7778" x2="373.823" y2="23.7778" gradientUnits="userSpaceOnUse">
<stop stop-color="white"/>
<stop offset="0.645" stop-color="#1754F0"/>
<stop offset="1" stop-color="#00113C"/>
</linearGradient>
<linearGradient id="paint18_linear_12_810" x1="263.717" y1="74.7894" x2="263.717" y2="529.632" gradientUnits="userSpaceOnUse">
<stop stop-color="white"/>
<stop offset="0.645" stop-color="#1754F0"/>
<stop offset="1" stop-color="#00113C"/>
</linearGradient>
<linearGradient id="paint19_linear_12_810" x1="401.315" y1="548.045" x2="401.315" y2="152.012" gradientUnits="userSpaceOnUse">
<stop stop-color="white"/>
<stop offset="0.645" stop-color="#1754F0"/>
<stop offset="1" stop-color="#00113C"/>
</linearGradient>
<linearGradient id="paint20_linear_12_810" x1="402.605" y1="256.909" x2="402.605" y2="442.82" gradientUnits="userSpaceOnUse">
<stop stop-color="white"/>
<stop offset="0.645" stop-color="#1754F0"/>
<stop offset="1" stop-color="#00113C"/>
</linearGradient>
<linearGradient id="paint21_linear_12_810" x1="289.762" y1="184.616" x2="289.762" y2="578.082" gradientUnits="userSpaceOnUse">
<stop stop-color="#1754F0"/>
<stop offset="0.76" stop-color="#00113C"/>
</linearGradient>
<linearGradient id="paint22_linear_12_810" x1="283.113" y1="215.925" x2="283.113" y2="382.018" gradientUnits="userSpaceOnUse">
<stop stop-color="white"/>
<stop offset="0.645" stop-color="#1754F0"/>
<stop offset="1" stop-color="#00113C"/>
</linearGradient>
<linearGradient id="paint23_linear_12_810" x1="380.471" y1="318.087" x2="380.471" y2="558.99" gradientUnits="userSpaceOnUse">
<stop stop-color="#1754F0"/>
<stop offset="0.275" stop-color="#00113C"/>
</linearGradient>
<linearGradient id="paint24_linear_12_810" x1="280.937" y1="186.243" x2="280.937" y2="573.684" gradientUnits="userSpaceOnUse">
<stop stop-color="white"/>
<stop offset="0.645" stop-color="#1754F0"/>
<stop offset="1" stop-color="#00113C"/>
</linearGradient>
<linearGradient id="paint25_linear_12_810" x1="423.255" y1="524.032" x2="289.384" y2="250.359" gradientUnits="userSpaceOnUse">
<stop stop-color="#144CDC"/>
<stop offset="1" stop-color="#4BFA91"/>
</linearGradient>
<linearGradient id="paint26_linear_12_810" x1="224.47" y1="400.577" x2="235.136" y2="635.629" gradientUnits="userSpaceOnUse">
<stop stop-color="white"/>
<stop offset="0.645" stop-color="#1754F0"/>
<stop offset="1" stop-color="#00113C"/>
</linearGradient>
<linearGradient id="paint27_linear_12_810" x1="199.036" y1="272.591" x2="258.927" y2="624.554" gradientUnits="userSpaceOnUse">
<stop stop-color="white"/>
<stop offset="0.645" stop-color="#1754F0"/>
<stop offset="1" stop-color="#00113C"/>
</linearGradient>
<linearGradient id="paint28_linear_12_810" x1="148.065" y1="509.711" x2="148.065" y2="557.043" gradientUnits="userSpaceOnUse">
<stop stop-color="white"/>
<stop offset="0.645" stop-color="#1754F0"/>
<stop offset="1" stop-color="#00113C"/>
</linearGradient>
<linearGradient id="paint29_linear_12_810" x1="244.944" y1="448.305" x2="236.942" y2="463.745" gradientUnits="userSpaceOnUse">
<stop stop-color="#144CDC"/>
<stop offset="1" stop-color="#4BFA91"/>
</linearGradient>
<linearGradient id="paint30_linear_12_810" x1="345.387" y1="506.297" x2="337.387" y2="521.736" gradientUnits="userSpaceOnUse">
<stop stop-color="#144CDC"/>
<stop offset="1" stop-color="#4BFA91"/>
</linearGradient>
<linearGradient id="paint31_linear_12_810" x1="194.721" y1="419.309" x2="186.721" y2="434.749" gradientUnits="userSpaceOnUse">
<stop stop-color="#144CDC"/>
<stop offset="1" stop-color="#4BFA91"/>
</linearGradient>
<linearGradient id="paint32_linear_12_810" x1="182.166" y1="426.559" x2="174.165" y2="441.998" gradientUnits="userSpaceOnUse">
<stop stop-color="#144CDC"/>
<stop offset="1" stop-color="#4BFA91"/>
</linearGradient>
<linearGradient id="paint33_linear_12_810" x1="182.166" y1="441.056" x2="174.165" y2="456.495" gradientUnits="userSpaceOnUse">
<stop stop-color="#144CDC"/>
<stop offset="1" stop-color="#4BFA91"/>
</linearGradient>
<linearGradient id="paint34_linear_12_810" x1="182.166" y1="455.553" x2="174.165" y2="470.993" gradientUnits="userSpaceOnUse">
<stop stop-color="#144CDC"/>
<stop offset="1" stop-color="#4BFA91"/>
</linearGradient>
<linearGradient id="paint35_linear_12_810" x1="182.166" y1="470.052" x2="174.165" y2="485.491" gradientUnits="userSpaceOnUse">
<stop stop-color="#144CDC"/>
<stop offset="1" stop-color="#4BFA91"/>
</linearGradient>
<linearGradient id="paint36_linear_12_810" x1="207.276" y1="426.559" x2="199.275" y2="441.998" gradientUnits="userSpaceOnUse">
<stop stop-color="#144CDC"/>
<stop offset="1" stop-color="#4BFA91"/>
</linearGradient>
<linearGradient id="paint37_linear_12_810" x1="194.721" y1="433.807" x2="186.721" y2="449.246" gradientUnits="userSpaceOnUse">
<stop stop-color="#144CDC"/>
<stop offset="1" stop-color="#4BFA91"/>
</linearGradient>
<linearGradient id="paint38_linear_12_810" x1="194.721" y1="448.305" x2="186.721" y2="463.745" gradientUnits="userSpaceOnUse">
<stop stop-color="#144CDC"/>
<stop offset="1" stop-color="#4BFA91"/>
</linearGradient>
<linearGradient id="paint39_linear_12_810" x1="194.721" y1="462.803" x2="186.721" y2="478.242" gradientUnits="userSpaceOnUse">
<stop stop-color="#144CDC"/>
<stop offset="1" stop-color="#4BFA91"/>
</linearGradient>
<linearGradient id="paint40_linear_12_810" x1="194.721" y1="477.301" x2="186.721" y2="492.74" gradientUnits="userSpaceOnUse">
<stop stop-color="#144CDC"/>
<stop offset="1" stop-color="#4BFA91"/>
</linearGradient>
<linearGradient id="paint41_linear_12_810" x1="219.832" y1="433.807" x2="211.831" y2="449.246" gradientUnits="userSpaceOnUse">
<stop stop-color="#144CDC"/>
<stop offset="1" stop-color="#4BFA91"/>
</linearGradient>
<linearGradient id="paint42_linear_12_810" x1="207.276" y1="441.056" x2="199.275" y2="456.495" gradientUnits="userSpaceOnUse">
<stop stop-color="#144CDC"/>
<stop offset="1" stop-color="#4BFA91"/>
</linearGradient>
<linearGradient id="paint43_linear_12_810" x1="207.276" y1="455.553" x2="199.275" y2="470.993" gradientUnits="userSpaceOnUse">
<stop stop-color="#144CDC"/>
<stop offset="1" stop-color="#4BFA91"/>
</linearGradient>
<linearGradient id="paint44_linear_12_810" x1="207.276" y1="470.052" x2="199.275" y2="485.491" gradientUnits="userSpaceOnUse">
<stop stop-color="#144CDC"/>
<stop offset="1" stop-color="#4BFA91"/>
</linearGradient>
<linearGradient id="paint45_linear_12_810" x1="207.276" y1="484.55" x2="199.274" y2="499.989" gradientUnits="userSpaceOnUse">
<stop stop-color="#144CDC"/>
<stop offset="1" stop-color="#4BFA91"/>
</linearGradient>
<linearGradient id="paint46_linear_12_810" x1="232.387" y1="441.056" x2="224.387" y2="456.495" gradientUnits="userSpaceOnUse">
<stop stop-color="#144CDC"/>
<stop offset="1" stop-color="#4BFA91"/>
</linearGradient>
<linearGradient id="paint47_linear_12_810" x1="219.832" y1="448.305" x2="211.831" y2="463.745" gradientUnits="userSpaceOnUse">
<stop stop-color="#144CDC"/>
<stop offset="1" stop-color="#4BFA91"/>
</linearGradient>
<linearGradient id="paint48_linear_12_810" x1="219.832" y1="462.803" x2="211.831" y2="478.242" gradientUnits="userSpaceOnUse">
<stop stop-color="#144CDC"/>
<stop offset="1" stop-color="#4BFA91"/>
</linearGradient>
<linearGradient id="paint49_linear_12_810" x1="219.832" y1="477.301" x2="211.832" y2="492.74" gradientUnits="userSpaceOnUse">
<stop stop-color="#144CDC"/>
<stop offset="1" stop-color="#4BFA91"/>
</linearGradient>
<linearGradient id="paint50_linear_12_810" x1="219.832" y1="491.798" x2="211.831" y2="507.238" gradientUnits="userSpaceOnUse">
<stop stop-color="#144CDC"/>
<stop offset="1" stop-color="#4BFA91"/>
</linearGradient>
<linearGradient id="paint51_linear_12_810" x1="232.387" y1="455.553" x2="224.386" y2="470.993" gradientUnits="userSpaceOnUse">
<stop stop-color="#144CDC"/>
<stop offset="1" stop-color="#4BFA91"/>
</linearGradient>
<linearGradient id="paint52_linear_12_810" x1="232.387" y1="470.052" x2="224.386" y2="485.491" gradientUnits="userSpaceOnUse">
<stop stop-color="#144CDC"/>
<stop offset="1" stop-color="#4BFA91"/>
</linearGradient>
<linearGradient id="paint53_linear_12_810" x1="232.387" y1="484.55" x2="224.386" y2="499.989" gradientUnits="userSpaceOnUse">
<stop stop-color="#144CDC"/>
<stop offset="1" stop-color="#4BFA91"/>
</linearGradient>
<linearGradient id="paint54_linear_12_810" x1="232.387" y1="499.047" x2="224.386" y2="514.487" gradientUnits="userSpaceOnUse">
<stop stop-color="#144CDC"/>
<stop offset="1" stop-color="#4BFA91"/>
</linearGradient>
<linearGradient id="paint55_linear_12_810" x1="257.499" y1="455.553" x2="249.499" y2="470.993" gradientUnits="userSpaceOnUse">
<stop stop-color="#144CDC"/>
<stop offset="1" stop-color="#4BFA91"/>
</linearGradient>
<linearGradient id="paint56_linear_12_810" x1="244.944" y1="462.803" x2="236.943" y2="478.242" gradientUnits="userSpaceOnUse">
<stop stop-color="#144CDC"/>
<stop offset="1" stop-color="#4BFA91"/>
</linearGradient>
<linearGradient id="paint57_linear_12_810" x1="244.944" y1="477.301" x2="236.943" y2="492.74" gradientUnits="userSpaceOnUse">
<stop stop-color="#144CDC"/>
<stop offset="1" stop-color="#4BFA91"/>
</linearGradient>
<linearGradient id="paint58_linear_12_810" x1="244.944" y1="491.798" x2="236.942" y2="507.238" gradientUnits="userSpaceOnUse">
<stop stop-color="#144CDC"/>
<stop offset="1" stop-color="#4BFA91"/>
</linearGradient>
<linearGradient id="paint59_linear_12_810" x1="244.944" y1="506.297" x2="236.943" y2="521.736" gradientUnits="userSpaceOnUse">
<stop stop-color="#144CDC"/>
<stop offset="1" stop-color="#4BFA91"/>
</linearGradient>
<linearGradient id="paint60_linear_12_810" x1="270.054" y1="462.803" x2="262.053" y2="478.242" gradientUnits="userSpaceOnUse">
<stop stop-color="#144CDC"/>
<stop offset="1" stop-color="#4BFA91"/>
</linearGradient>
<linearGradient id="paint61_linear_12_810" x1="257.499" y1="470.052" x2="249.499" y2="485.491" gradientUnits="userSpaceOnUse">
<stop stop-color="#144CDC"/>
<stop offset="1" stop-color="#4BFA91"/>
</linearGradient>
<linearGradient id="paint62_linear_12_810" x1="257.499" y1="484.55" x2="249.499" y2="499.99" gradientUnits="userSpaceOnUse">
<stop stop-color="#144CDC"/>
<stop offset="1" stop-color="#4BFA91"/>
</linearGradient>
<linearGradient id="paint63_linear_12_810" x1="257.499" y1="499.047" x2="249.499" y2="514.487" gradientUnits="userSpaceOnUse">
<stop stop-color="#144CDC"/>
<stop offset="1" stop-color="#4BFA91"/>
</linearGradient>
<linearGradient id="paint64_linear_12_810" x1="282.61" y1="470.052" x2="274.609" y2="485.491" gradientUnits="userSpaceOnUse">
<stop stop-color="#144CDC"/>
<stop offset="1" stop-color="#4BFA91"/>
</linearGradient>
<linearGradient id="paint65_linear_12_810" x1="270.054" y1="477.301" x2="262.053" y2="492.74" gradientUnits="userSpaceOnUse">
<stop stop-color="#144CDC"/>
<stop offset="1" stop-color="#4BFA91"/>
</linearGradient>
<linearGradient id="paint66_linear_12_810" x1="270.054" y1="491.798" x2="262.053" y2="507.238" gradientUnits="userSpaceOnUse">
<stop stop-color="#144CDC"/>
<stop offset="1" stop-color="#4BFA91"/>
</linearGradient>
<linearGradient id="paint67_linear_12_810" x1="270.054" y1="506.297" x2="262.053" y2="521.736" gradientUnits="userSpaceOnUse">
<stop stop-color="#144CDC"/>
<stop offset="1" stop-color="#4BFA91"/>
</linearGradient>
<linearGradient id="paint68_linear_12_810" x1="295.165" y1="477.301" x2="287.164" y2="492.74" gradientUnits="userSpaceOnUse">
<stop stop-color="#144CDC"/>
<stop offset="1" stop-color="#4BFA91"/>
</linearGradient>
<linearGradient id="paint69_linear_12_810" x1="282.61" y1="484.55" x2="274.609" y2="499.989" gradientUnits="userSpaceOnUse">
<stop stop-color="#144CDC"/>
<stop offset="1" stop-color="#4BFA91"/>
</linearGradient>
<linearGradient id="paint70_linear_12_810" x1="282.61" y1="499.047" x2="274.609" y2="514.487" gradientUnits="userSpaceOnUse">
<stop stop-color="#144CDC"/>
<stop offset="1" stop-color="#4BFA91"/>
</linearGradient>
<linearGradient id="paint71_linear_12_810" x1="307.721" y1="484.55" x2="299.72" y2="499.989" gradientUnits="userSpaceOnUse">
<stop stop-color="#144CDC"/>
<stop offset="1" stop-color="#4BFA91"/>
</linearGradient>
<linearGradient id="paint72_linear_12_810" x1="295.165" y1="491.798" x2="287.163" y2="507.238" gradientUnits="userSpaceOnUse">
<stop stop-color="#144CDC"/>
<stop offset="1" stop-color="#4BFA91"/>
</linearGradient>
<linearGradient id="paint73_linear_12_810" x1="295.165" y1="506.297" x2="287.163" y2="521.736" gradientUnits="userSpaceOnUse">
<stop stop-color="#144CDC"/>
<stop offset="1" stop-color="#4BFA91"/>
</linearGradient>
<linearGradient id="paint74_linear_12_810" x1="320.276" y1="491.798" x2="312.275" y2="507.238" gradientUnits="userSpaceOnUse">
<stop stop-color="#144CDC"/>
<stop offset="1" stop-color="#4BFA91"/>
</linearGradient>
<linearGradient id="paint75_linear_12_810" x1="307.721" y1="499.047" x2="299.72" y2="514.487" gradientUnits="userSpaceOnUse">
<stop stop-color="#144CDC"/>
<stop offset="1" stop-color="#4BFA91"/>
</linearGradient>
<linearGradient id="paint76_linear_12_810" x1="332.832" y1="499.047" x2="324.832" y2="514.487" gradientUnits="userSpaceOnUse">
<stop stop-color="#144CDC"/>
<stop offset="1" stop-color="#4BFA91"/>
</linearGradient>
<linearGradient id="paint77_linear_12_810" x1="320.276" y1="506.297" x2="312.275" y2="521.736" gradientUnits="userSpaceOnUse">
<stop stop-color="#144CDC"/>
<stop offset="1" stop-color="#4BFA91"/>
</linearGradient>
<linearGradient id="paint78_linear_12_810" x1="203.753" y1="558.771" x2="215.36" y2="427.255" gradientUnits="userSpaceOnUse">
<stop stop-color="#144CDC"/>
<stop offset="1" stop-color="#4BFA91"/>
</linearGradient>
<linearGradient id="paint79_linear_12_810" x1="203.753" y1="558.771" x2="215.36" y2="427.255" gradientUnits="userSpaceOnUse">
<stop stop-color="#144CDC"/>
<stop offset="1" stop-color="#4BFA91"/>
</linearGradient>
<linearGradient id="paint80_linear_12_810" x1="203.753" y1="558.771" x2="215.36" y2="427.255" gradientUnits="userSpaceOnUse">
<stop stop-color="#144CDC"/>
<stop offset="1" stop-color="#4BFA91"/>
</linearGradient>
<linearGradient id="paint81_linear_12_810" x1="203.753" y1="558.771" x2="215.36" y2="427.255" gradientUnits="userSpaceOnUse">
<stop stop-color="#144CDC"/>
<stop offset="1" stop-color="#4BFA91"/>
</linearGradient>
<linearGradient id="paint82_linear_12_810" x1="203.753" y1="558.771" x2="215.36" y2="427.254" gradientUnits="userSpaceOnUse">
<stop stop-color="#144CDC"/>
<stop offset="1" stop-color="#4BFA91"/>
</linearGradient>
<linearGradient id="paint83_linear_12_810" x1="203.753" y1="558.77" x2="215.36" y2="427.255" gradientUnits="userSpaceOnUse">
<stop stop-color="#144CDC"/>
<stop offset="1" stop-color="#4BFA91"/>
</linearGradient>
<linearGradient id="paint84_linear_12_810" x1="203.753" y1="558.77" x2="215.36" y2="427.254" gradientUnits="userSpaceOnUse">
<stop stop-color="#144CDC"/>
<stop offset="1" stop-color="#4BFA91"/>
</linearGradient>
<linearGradient id="paint85_linear_12_810" x1="203.753" y1="558.771" x2="215.36" y2="427.254" gradientUnits="userSpaceOnUse">
<stop stop-color="#144CDC"/>
<stop offset="1" stop-color="#4BFA91"/>
</linearGradient>
<linearGradient id="paint86_linear_12_810" x1="203.753" y1="558.77" x2="215.36" y2="427.255" gradientUnits="userSpaceOnUse">
<stop stop-color="#144CDC"/>
<stop offset="1" stop-color="#4BFA91"/>
</linearGradient>
<linearGradient id="paint87_linear_12_810" x1="203.753" y1="558.771" x2="215.36" y2="427.254" gradientUnits="userSpaceOnUse">
<stop stop-color="#144CDC"/>
<stop offset="1" stop-color="#4BFA91"/>
</linearGradient>
<linearGradient id="paint88_linear_12_810" x1="203.753" y1="558.77" x2="215.36" y2="427.254" gradientUnits="userSpaceOnUse">
<stop stop-color="#144CDC"/>
<stop offset="1" stop-color="#4BFA91"/>
</linearGradient>
<linearGradient id="paint89_linear_12_810" x1="203.753" y1="558.771" x2="215.36" y2="427.255" gradientUnits="userSpaceOnUse">
<stop stop-color="#144CDC"/>
<stop offset="1" stop-color="#4BFA91"/>
</linearGradient>
<linearGradient id="paint90_linear_12_810" x1="203.753" y1="558.771" x2="215.36" y2="427.254" gradientUnits="userSpaceOnUse">
<stop stop-color="#144CDC"/>
<stop offset="1" stop-color="#4BFA91"/>
</linearGradient>
<linearGradient id="paint91_linear_12_810" x1="203.753" y1="558.77" x2="215.36" y2="427.255" gradientUnits="userSpaceOnUse">
<stop stop-color="#144CDC"/>
<stop offset="1" stop-color="#4BFA91"/>
</linearGradient>
<linearGradient id="paint92_linear_12_810" x1="203.753" y1="558.771" x2="215.36" y2="427.255" gradientUnits="userSpaceOnUse">
<stop stop-color="#144CDC"/>
<stop offset="1" stop-color="#4BFA91"/>
</linearGradient>
<linearGradient id="paint93_linear_12_810" x1="203.753" y1="558.771" x2="215.36" y2="427.255" gradientUnits="userSpaceOnUse">
<stop stop-color="#144CDC"/>
<stop offset="1" stop-color="#4BFA91"/>
</linearGradient>
<linearGradient id="paint94_linear_12_810" x1="203.753" y1="558.771" x2="215.36" y2="427.254" gradientUnits="userSpaceOnUse">
<stop stop-color="#144CDC"/>
<stop offset="1" stop-color="#4BFA91"/>
</linearGradient>
<linearGradient id="paint95_linear_12_810" x1="203.753" y1="558.77" x2="215.36" y2="427.255" gradientUnits="userSpaceOnUse">
<stop stop-color="#144CDC"/>
<stop offset="1" stop-color="#4BFA91"/>
</linearGradient>
<linearGradient id="paint96_linear_12_810" x1="203.753" y1="558.771" x2="215.36" y2="427.254" gradientUnits="userSpaceOnUse">
<stop stop-color="#144CDC"/>
<stop offset="1" stop-color="#4BFA91"/>
</linearGradient>
<linearGradient id="paint97_linear_12_810" x1="203.753" y1="558.77" x2="215.36" y2="427.255" gradientUnits="userSpaceOnUse">
<stop stop-color="#144CDC"/>
<stop offset="1" stop-color="#4BFA91"/>
</linearGradient>
<linearGradient id="paint98_linear_12_810" x1="203.753" y1="558.771" x2="215.36" y2="427.254" gradientUnits="userSpaceOnUse">
<stop stop-color="#144CDC"/>
<stop offset="1" stop-color="#4BFA91"/>
</linearGradient>
<linearGradient id="paint99_linear_12_810" x1="203.753" y1="558.771" x2="215.36" y2="427.254" gradientUnits="userSpaceOnUse">
<stop stop-color="#144CDC"/>
<stop offset="1" stop-color="#4BFA91"/>
</linearGradient>
<linearGradient id="paint100_linear_12_810" x1="203.753" y1="558.77" x2="215.36" y2="427.255" gradientUnits="userSpaceOnUse">
<stop stop-color="#144CDC"/>
<stop offset="1" stop-color="#4BFA91"/>
</linearGradient>
<linearGradient id="paint101_linear_12_810" x1="203.753" y1="558.771" x2="215.36" y2="427.255" gradientUnits="userSpaceOnUse">
<stop stop-color="#144CDC"/>
<stop offset="1" stop-color="#4BFA91"/>
</linearGradient>
<linearGradient id="paint102_linear_12_810" x1="203.753" y1="558.771" x2="215.36" y2="427.255" gradientUnits="userSpaceOnUse">
<stop stop-color="#144CDC"/>
<stop offset="1" stop-color="#4BFA91"/>
</linearGradient>
<linearGradient id="paint103_linear_12_810" x1="203.753" y1="558.771" x2="215.36" y2="427.254" gradientUnits="userSpaceOnUse">
<stop stop-color="#144CDC"/>
<stop offset="1" stop-color="#4BFA91"/>
</linearGradient>
<linearGradient id="paint104_linear_12_810" x1="203.753" y1="558.77" x2="215.36" y2="427.255" gradientUnits="userSpaceOnUse">
<stop stop-color="#144CDC"/>
<stop offset="1" stop-color="#4BFA91"/>
</linearGradient>
<linearGradient id="paint105_linear_12_810" x1="203.753" y1="558.771" x2="215.36" y2="427.254" gradientUnits="userSpaceOnUse">
<stop stop-color="#144CDC"/>
<stop offset="1" stop-color="#4BFA91"/>
</linearGradient>
<linearGradient id="paint106_linear_12_810" x1="203.753" y1="558.77" x2="215.36" y2="427.255" gradientUnits="userSpaceOnUse">
<stop stop-color="#144CDC"/>
<stop offset="1" stop-color="#4BFA91"/>
</linearGradient>
<linearGradient id="paint107_linear_12_810" x1="203.753" y1="558.771" x2="215.36" y2="427.255" gradientUnits="userSpaceOnUse">
<stop stop-color="#144CDC"/>
<stop offset="1" stop-color="#4BFA91"/>
</linearGradient>
<linearGradient id="paint108_linear_12_810" x1="203.753" y1="558.77" x2="215.36" y2="427.255" gradientUnits="userSpaceOnUse">
<stop stop-color="#144CDC"/>
<stop offset="1" stop-color="#4BFA91"/>
</linearGradient>
<linearGradient id="paint109_linear_12_810" x1="203.753" y1="558.77" x2="215.36" y2="427.255" gradientUnits="userSpaceOnUse">
<stop stop-color="#144CDC"/>
<stop offset="1" stop-color="#4BFA91"/>
</linearGradient>
<linearGradient id="paint110_linear_12_810" x1="203.753" y1="558.771" x2="215.36" y2="427.255" gradientUnits="userSpaceOnUse">
<stop stop-color="#144CDC"/>
<stop offset="1" stop-color="#4BFA91"/>
</linearGradient>
<linearGradient id="paint111_linear_12_810" x1="203.753" y1="558.771" x2="215.36" y2="427.255" gradientUnits="userSpaceOnUse">
<stop stop-color="#144CDC"/>
<stop offset="1" stop-color="#4BFA91"/>
</linearGradient>
<linearGradient id="paint112_linear_12_810" x1="203.753" y1="558.77" x2="215.36" y2="427.255" gradientUnits="userSpaceOnUse">
<stop stop-color="#144CDC"/>
<stop offset="1" stop-color="#4BFA91"/>
</linearGradient>
<linearGradient id="paint113_linear_12_810" x1="203.753" y1="558.771" x2="215.36" y2="427.254" gradientUnits="userSpaceOnUse">
<stop stop-color="#144CDC"/>
<stop offset="1" stop-color="#4BFA91"/>
</linearGradient>
<linearGradient id="paint114_linear_12_810" x1="203.753" y1="558.77" x2="215.36" y2="427.255" gradientUnits="userSpaceOnUse">
<stop stop-color="#144CDC"/>
<stop offset="1" stop-color="#4BFA91"/>
</linearGradient>
<linearGradient id="paint115_linear_12_810" x1="203.753" y1="558.771" x2="215.36" y2="427.255" gradientUnits="userSpaceOnUse">
<stop stop-color="#144CDC"/>
<stop offset="1" stop-color="#4BFA91"/>
</linearGradient>
<linearGradient id="paint116_linear_12_810" x1="203.753" y1="558.771" x2="215.36" y2="427.254" gradientUnits="userSpaceOnUse">
<stop stop-color="#144CDC"/>
<stop offset="1" stop-color="#4BFA91"/>
</linearGradient>
<linearGradient id="paint117_linear_12_810" x1="203.753" y1="558.771" x2="215.36" y2="427.255" gradientUnits="userSpaceOnUse">
<stop stop-color="#144CDC"/>
<stop offset="1" stop-color="#4BFA91"/>
</linearGradient>
<linearGradient id="paint118_linear_12_810" x1="203.753" y1="558.771" x2="215.36" y2="427.255" gradientUnits="userSpaceOnUse">
<stop stop-color="#144CDC"/>
<stop offset="1" stop-color="#4BFA91"/>
</linearGradient>
<linearGradient id="paint119_linear_12_810" x1="203.753" y1="558.771" x2="215.36" y2="427.255" gradientUnits="userSpaceOnUse">
<stop stop-color="#144CDC"/>
<stop offset="1" stop-color="#4BFA91"/>
</linearGradient>
<linearGradient id="paint120_linear_12_810" x1="203.753" y1="558.77" x2="215.36" y2="427.255" gradientUnits="userSpaceOnUse">
<stop stop-color="#144CDC"/>
<stop offset="1" stop-color="#4BFA91"/>
</linearGradient>
<linearGradient id="paint121_linear_12_810" x1="203.753" y1="558.771" x2="215.36" y2="427.255" gradientUnits="userSpaceOnUse">
<stop stop-color="#144CDC"/>
<stop offset="1" stop-color="#4BFA91"/>
</linearGradient>
<linearGradient id="paint122_linear_12_810" x1="203.753" y1="558.77" x2="215.36" y2="427.255" gradientUnits="userSpaceOnUse">
<stop stop-color="#144CDC"/>
<stop offset="1" stop-color="#4BFA91"/>
</linearGradient>
<linearGradient id="paint123_linear_12_810" x1="203.753" y1="558.771" x2="215.36" y2="427.255" gradientUnits="userSpaceOnUse">
<stop stop-color="#144CDC"/>
<stop offset="1" stop-color="#4BFA91"/>
</linearGradient>
<linearGradient id="paint124_linear_12_810" x1="203.753" y1="558.771" x2="215.36" y2="427.255" gradientUnits="userSpaceOnUse">
<stop stop-color="#144CDC"/>
<stop offset="1" stop-color="#4BFA91"/>
</linearGradient>
<linearGradient id="paint125_linear_12_810" x1="203.753" y1="558.771" x2="215.36" y2="427.255" gradientUnits="userSpaceOnUse">
<stop stop-color="#144CDC"/>
<stop offset="1" stop-color="#4BFA91"/>
</linearGradient>
<linearGradient id="paint126_linear_12_810" x1="203.753" y1="558.771" x2="215.36" y2="427.255" gradientUnits="userSpaceOnUse">
<stop stop-color="#144CDC"/>
<stop offset="1" stop-color="#4BFA91"/>
</linearGradient>
<linearGradient id="paint127_linear_12_810" x1="141.327" y1="563.301" x2="151.73" y2="482.317" gradientUnits="userSpaceOnUse">
<stop stop-color="#144CDC"/>
<stop offset="1" stop-color="#4BFA91"/>
</linearGradient>
<linearGradient id="paint128_linear_12_810" x1="516.124" y1="549.711" x2="249.03" y2="473.723" gradientUnits="userSpaceOnUse">
<stop stop-color="white"/>
<stop offset="0.645" stop-color="#1754F0"/>
<stop offset="1" stop-color="#00113C"/>
</linearGradient>
<linearGradient id="paint129_linear_12_810" x1="414.905" y1="380.394" x2="339.771" y2="644.484" gradientUnits="userSpaceOnUse">
<stop stop-color="white"/>
<stop offset="0.645" stop-color="#1754F0"/>
<stop offset="1" stop-color="#00113C"/>
</linearGradient>
<linearGradient id="paint130_linear_12_810" x1="447.294" y1="511.584" x2="359.028" y2="572.398" gradientUnits="userSpaceOnUse">
<stop stop-color="#144CDC"/>
<stop offset="1" stop-color="#4BFA91"/>
</linearGradient>
<linearGradient id="paint131_linear_12_810" x1="354.157" y1="572.835" x2="349.382" y2="579.551" gradientUnits="userSpaceOnUse">
<stop stop-color="#144CDC"/>
<stop offset="1" stop-color="#4BFA91"/>
</linearGradient>
<linearGradient id="paint132_linear_12_810" x1="391.409" y1="427.912" x2="395.321" y2="445.074" gradientUnits="userSpaceOnUse">
<stop stop-color="#144CDC"/>
<stop offset="1" stop-color="#4BFA91"/>
</linearGradient>
<clipPath id="clip0_12_810">
<rect width="550" height="617.947" fill="white" transform="translate(0 0.0266113)"/>
</clipPath>
</defs>
</svg>
