<svg width="24" height="25" viewBox="0 0 24 25" fill="none" xmlns="http://www.w3.org/2000/svg">
<path d="M12 2.69995C7.53 2.69995 3 4.06995 3 6.69995V18.6999C3 21.3299 7.53 22.6999 12 22.6999C16.47 22.6999 21 21.3299 21 18.6999V6.69995C21 4.06995 16.47 2.69995 12 2.69995Z" fill="black"/>
<path d="M12 2.69995C7.53 2.69995 3 4.06995 3 6.69995V12.7C3 15.33 7.53 16.7 12 16.7C16.47 16.7 21 15.33 21 12.7V6.69995C21 4.06995 16.47 2.69995 12 2.69995Z" fill="#376BF2"/>
<path d="M12 10.7C16.9706 10.7 21 8.90909 21 6.69995C21 3.69998 16.9706 2.57498 12 2.57498C7.02944 2.57498 3 3.69998 3 6.69995C3 8.90909 7.02944 10.7 12 10.7Z" fill="black"/>
</svg>
