<svg width="24" height="25" viewBox="0 0 24 25" fill="none" xmlns="http://www.w3.org/2000/svg">
<path d="M8.4 17.6999C8.78947 17.1806 9 16.549 9 15.8999C9 15.1043 8.68393 14.3412 8.12132 13.7786C7.55871 13.216 6.79565 12.8999 6 12.8999C5.20435 12.8999 4.44129 13.216 3.87868 13.7786C3.31607 14.3412 3 15.1043 3 15.8999C3 16.549 3.21053 17.1806 3.6 17.6999C3.10322 18.0725 2.7 18.5556 2.42229 19.1111C2.14458 19.6665 2 20.2789 2 20.8999V21.8999C2 22.1651 2.10536 22.4195 2.29289 22.607C2.48043 22.7946 2.73478 22.8999 3 22.8999H9C9.26522 22.8999 9.51957 22.7946 9.70711 22.607C9.89464 22.4195 10 22.1651 10 21.8999V20.8999C10 20.2789 9.85542 19.6665 9.57771 19.1111C9.3 18.5556 8.89678 18.0725 8.4 17.6999Z" fill="black"/>
<path d="M22 7.89992V10.8999C22 11.4304 21.7893 11.9391 21.4142 12.3141C21.0391 12.6892 20.5304 12.8999 20 12.8999H16.24L12.45 14.7899C12.3107 14.8613 12.1565 14.899 12 14.8999C11.8128 14.9005 11.6291 14.8485 11.47 14.7499C11.3259 14.6598 11.2071 14.5345 11.1249 14.3858C11.0426 14.2371 10.9997 14.0699 11 13.8999V12.6299C10.6963 12.4546 10.444 12.2024 10.2685 11.8988C10.0929 11.5951 10.0004 11.2506 10 10.8999V7.89992C10 7.36948 10.2107 6.86078 10.5858 6.4857C10.9609 6.11063 11.4696 5.89992 12 5.89992H20C20.5304 5.89992 21.0391 6.11063 21.4142 6.4857C21.7893 6.86078 22 7.36948 22 7.89992ZM9 7.89992C9 7.10427 9.31607 6.34121 9.87868 5.7786C10.4413 5.21599 11.2043 4.89992 12 4.89992H16C16 4.36948 15.7893 3.86078 15.4142 3.4857C15.0391 3.11063 14.5304 2.89992 14 2.89992H4C3.46957 2.89992 2.96086 3.11063 2.58579 3.4857C2.21071 3.86078 2 4.36948 2 4.89992V7.89992C2 8.43035 2.21071 8.93906 2.58579 9.31413C2.96086 9.6892 3.46957 9.89992 4 9.89992H9V7.89992Z" fill="#376BF2"/>
</svg>
