<svg width="25" height="24" viewBox="0 0 25 24" fill="none" xmlns="http://www.w3.org/2000/svg">
<g clip-path="url(#clip0_12_1380)">
<path fill-rule="evenodd" clip-rule="evenodd" d="M8.03169 0.169236C9.25107 -0.377186 10.3075 0.857151 9.926 1.92887C8.63163 5.56538 9.42691 9.69565 12.1136 12.3813C14.814 15.0807 18.9716 15.8741 22.6199 14.5565C23.6815 14.1731 24.8823 15.2191 24.3575 16.4095C24.3419 16.4447 24.3263 16.4797 24.3105 16.5149C23.3764 18.5862 21.8822 20.5342 19.9491 21.8402C17.8886 23.2323 15.4587 23.976 12.9718 23.976H12.9706C10.0787 23.9729 7.27797 22.9642 5.04841 21.123C2.81885 19.2818 1.29935 16.7225 0.750533 13.884C0.201713 11.0454 0.657774 8.10446 2.0405 5.56525C3.35132 3.15807 5.55553 1.28743 7.99583 0.185356L8.03169 0.169236Z" fill="black"/>
</g>
<defs>
<clipPath id="clip0_12_1380">
<rect width="24" height="24" fill="white" transform="translate(0.5)"/>
</clipPath>
</defs>
</svg>
