<svg width="732" height="367" viewBox="0 0 732 367" fill="none" xmlns="http://www.w3.org/2000/svg">
<g clip-path="url(#clip0_48_519)">
<path d="M654 125.441C654 194.72 597.881 250.882 528.65 250.882C459.421 250.882 403.3 194.72 403.3 125.441C403.3 56.1621 459.421 0 528.65 0C597.881 0 654 56.1621 654 125.441Z" fill="url(#paint0_linear_48_519)"/>
<path d="M528.922 219.794C580.844 219.794 622.935 177.917 622.935 126.259C622.935 74.6009 580.844 32.7238 528.922 32.7238C477.001 32.7238 434.91 74.6009 434.91 126.259C434.91 177.917 477.001 219.794 528.922 219.794Z" fill="url(#paint1_linear_48_519)"/>
<mask id="mask0_48_519" style="mask-type:luminance" maskUnits="userSpaceOnUse" x="434" y="31" width="189" height="189">
<path d="M622.935 31.6329H434.91V219.794H622.935V31.6329Z" fill="white"/>
</mask>
<g mask="url(#mask0_48_519)">
<path d="M623.12 125.714C623.12 75.7276 583.891 34.7376 534.563 31.8152C533.547 31.7035 532.53 31.627 531.49 31.627C531.185 31.627 530.879 31.6564 530.573 31.6682C530.027 31.6564 529.481 31.627 528.922 31.627C476.981 31.627 434.722 73.834 434.722 125.714C434.722 177.593 476.981 219.8 528.922 219.8C529.475 219.8 530.027 219.765 530.573 219.753C530.879 219.765 531.185 219.8 531.49 219.8C532.524 219.8 533.541 219.729 534.563 219.612C583.891 216.689 623.12 175.7 623.12 125.714ZM605.593 156.002C602.356 155.061 594.224 153.021 579.874 151.333C581.063 143.213 581.717 134.634 581.717 125.714C581.717 118.681 581.313 111.872 580.561 105.316C598.737 103.14 606.705 100.406 607.233 100.217L605.048 94.0436C609.13 103.799 611.397 114.494 611.397 125.714C611.397 136.403 609.326 146.617 605.593 156.002ZM487.327 125.714C487.327 119.134 487.762 112.707 488.561 106.527C498.086 107.274 509.485 107.832 522.87 107.956V148.758C509.832 148.881 498.697 149.41 489.325 150.134C488.033 142.378 487.327 134.175 487.327 125.714ZM534.604 44.1692C549.011 48.3499 561.35 68.3653 566.876 94.9021C557.987 95.6078 547.294 96.1314 534.604 96.2486V44.1692ZM522.876 44.3103V96.2426C510.325 96.1194 499.579 95.6018 490.547 94.9141C496.188 68.7067 508.622 48.8379 522.876 44.3103ZM522.876 160.483V207.105C509.579 202.883 497.869 185.319 491.776 161.717C500.542 161.071 510.895 160.606 522.876 160.483ZM534.604 207.258V160.483C546.717 160.6 557.012 161.082 565.677 161.758C559.688 185.672 548.046 203.365 534.604 207.258ZM534.604 148.763V107.962C548.068 107.838 559.388 107.268 568.789 106.492C569.558 112.684 569.983 119.116 569.983 125.708C569.983 134.187 569.302 142.407 568.048 150.169C558.794 149.416 547.709 148.887 534.604 148.763ZM602.884 89.3161C601.113 89.8686 593.696 91.9798 578.834 93.7322C575.52 76.1039 569.525 61.033 561.731 50.1491C579.64 57.9401 594.257 71.8875 602.89 89.3161H602.884ZM500.795 48.2793C491.206 59.2926 483.385 75.1391 479.107 93.8734C465.799 92.4325 457.82 90.7331 454.629 89.963C463.942 70.735 480.524 55.6472 500.789 48.2852L500.795 48.2793ZM450.269 100.941C452.531 101.553 461.086 103.687 476.998 105.445C476.087 111.954 475.588 118.734 475.588 125.714C475.588 134.587 476.387 143.118 477.838 151.198C464.177 152.674 455.775 154.443 452.008 155.349C448.442 146.141 446.462 136.156 446.462 125.708C446.462 117.082 447.801 108.756 450.275 100.935L450.269 100.941ZM457.144 166.204C461.415 165.298 469.066 163.91 480.389 162.729C484.848 179.21 492.099 193.158 500.795 203.148C482.227 196.397 466.774 183.162 457.144 166.204ZM561.726 201.266C568.751 191.476 574.299 178.293 577.754 162.899C589.401 164.234 596.71 165.804 600.394 166.733C591.581 181.997 578.021 194.187 561.726 201.266Z" fill="url(#paint2_linear_48_519)"/>
</g>
<path d="M41.8093 186.212C43.2289 197.585 35.1668 207.956 23.8021 209.376C12.4374 210.797 2.07374 202.729 0.654158 191.356C-0.765414 179.983 7.2967 169.612 18.6614 168.191C30.0261 166.771 40.3898 174.839 41.8093 186.212Z" fill="url(#paint3_linear_48_519)"/>
<path d="M50.0344 252.108C51.454 263.481 43.3919 273.852 32.0272 275.273C20.6625 276.693 10.2989 268.625 8.87925 257.252C7.45969 245.88 15.5218 235.508 26.8865 234.088C38.2512 232.667 48.6149 240.735 50.0344 252.108Z" fill="url(#paint4_linear_48_519)"/>
<path d="M58.2594 318.004C59.6791 329.377 51.6171 339.748 40.2524 341.169C28.8878 342.589 18.524 334.521 17.1045 323.148C15.6849 311.775 23.747 301.404 35.1117 299.984C46.4764 298.563 56.8402 306.631 58.2594 318.004Z" fill="url(#paint5_linear_48_519)"/>
<path d="M107.658 177.981C109.077 189.354 101.015 199.725 89.6504 201.145C78.2855 202.566 67.9223 194.498 66.5026 183.125C65.0829 171.752 73.145 161.381 84.5099 159.96C95.8743 158.54 106.238 166.607 107.658 177.981Z" fill="url(#paint6_linear_48_519)"/>
<path d="M115.883 243.877C117.303 255.249 109.24 265.621 97.8755 267.041C86.5111 268.462 76.1474 260.394 74.7277 249.021C73.308 237.648 81.3701 227.277 92.735 225.856C104.099 224.436 114.463 232.504 115.883 243.877Z" fill="url(#paint7_linear_48_519)"/>
<path d="M124.108 309.773C125.528 321.146 117.465 331.517 106.101 332.938C94.7362 334.358 84.3725 326.29 82.9528 314.917C81.533 303.544 89.5952 293.173 100.96 291.752C112.324 290.332 122.688 298.4 124.108 309.773Z" fill="url(#paint8_linear_48_519)"/>
<path d="M173.506 169.749C174.925 181.123 166.863 191.494 155.499 192.914C144.134 194.335 133.77 186.267 132.35 174.894C130.931 163.521 138.993 153.15 150.358 151.729C161.723 150.309 172.086 158.376 173.506 169.749Z" fill="url(#paint9_linear_48_519)"/>
<path d="M181.731 235.646C183.151 247.018 175.088 257.39 163.724 258.81C152.359 260.231 141.995 252.163 140.576 240.79C139.157 229.417 147.219 219.046 158.583 217.625C169.948 216.205 180.312 224.273 181.731 235.646Z" fill="url(#paint10_linear_48_519)"/>
<path d="M189.956 301.542C191.376 312.915 183.313 323.286 171.949 324.706C160.584 326.127 150.22 318.059 148.801 306.686C147.382 295.313 155.444 284.942 166.808 283.521C178.173 282.101 188.537 290.168 189.956 301.542Z" fill="url(#paint11_linear_48_519)"/>
<mask id="mask1_48_519" style="mask-type:luminance" maskUnits="userSpaceOnUse" x="119" y="67" width="410" height="301">
<path d="M528.65 67.0836H119.9V367.051H528.65V67.0836Z" fill="white"/>
</mask>
<g mask="url(#mask1_48_519)">
<path d="M156.006 311.148H492.544C497.994 311.148 502.081 307.058 502.081 301.604V76.628C502.081 71.1741 497.994 67.0836 492.544 67.0836H156.006C151.238 67.0836 147.15 71.1741 147.15 76.628V301.604C147.15 307.058 151.238 311.148 156.006 311.148Z" fill="url(#paint12_linear_48_519)"/>
<path d="M119.9 344.554C119.9 355.462 128.756 367.051 140.338 367.051H508.213C519.113 367.051 528.65 355.462 528.65 344.554H119.9Z" fill="url(#paint13_linear_48_519)"/>
<path d="M494.588 311.148H153.963L119.9 344.554H528.65L494.588 311.148Z" fill="url(#paint14_linear_48_519)"/>
<path d="M483.006 313.875H165.544L153.963 327.51H494.588L483.006 313.875Z" fill="url(#paint15_linear_48_519)"/>
<path d="M359.019 333.646H289.531L284.081 341.145H364.469L359.019 333.646Z" fill="url(#paint16_linear_48_519)"/>
<path d="M167.315 87.2632H480.69V290.15H167.315V87.2632Z" fill="#3E4347"/>
<path d="M480.69 87.2632H167.315V106.897H480.69V87.2632Z" fill="url(#paint17_linear_48_519)"/>
<mask id="mask2_48_519" style="mask-type:luminance" maskUnits="userSpaceOnUse" x="167" y="106" width="314" height="185">
<path d="M480.69 106.897H167.315V290.15H480.69V106.897Z" fill="white"/>
</mask>
<g mask="url(#mask2_48_519)">
<path d="M404.935 106.897H167.315V290.15H404.935V106.897Z" fill="url(#paint18_linear_48_519)"/>
<path d="M305.336 203.569L327.818 257.563L335.794 234.049L359.291 226.066L305.336 203.569Z" fill="url(#paint19_linear_48_519)"/>
<path fill-rule="evenodd" clip-rule="evenodd" d="M301.868 200.098C303.273 198.691 305.388 198.273 307.223 199.038L361.178 221.535C363.061 222.321 364.262 224.191 364.194 226.232C364.124 228.273 362.8 230.058 360.868 230.714L344.839 236.16L359.675 251.006C361.591 252.922 361.591 256.03 359.675 257.947C357.76 259.864 354.654 259.864 352.738 257.947L337.903 243.101L332.462 259.141C331.806 261.074 330.023 262.4 327.983 262.469C325.944 262.538 324.074 261.336 323.29 259.451L300.808 205.457C300.044 203.621 300.462 201.505 301.868 200.098ZM314.445 212.685L327.349 243.675L331.149 232.471C331.639 231.026 332.773 229.891 334.217 229.4L345.413 225.597L314.445 212.685Z" fill="url(#paint20_linear_48_519)"/>
<path fill-rule="evenodd" clip-rule="evenodd" d="M295.919 168.407C298.535 167.704 301.225 169.257 301.927 171.876L305.42 184.911C306.122 187.529 304.57 190.221 301.953 190.924C299.337 191.626 296.647 190.072 295.945 187.455L292.451 174.419C291.75 171.801 293.302 169.109 295.919 168.407ZM331.061 177.826C332.976 179.742 332.976 182.85 331.061 184.767L321.52 194.315C319.604 196.232 316.499 196.232 314.583 194.315C312.668 192.398 312.668 189.29 314.583 187.373L324.125 177.826C326.04 175.909 329.146 175.909 331.061 177.826ZM270.195 194.144C270.897 191.526 273.586 189.973 276.203 190.675L289.233 194.171C291.85 194.873 293.402 197.565 292.7 200.183C291.999 202.801 289.309 204.355 286.692 203.653L273.662 200.157C271.046 199.455 269.493 196.763 270.195 194.144ZM296.083 212.821C297.999 214.737 298.001 217.845 296.087 219.763L286.554 229.31C284.64 231.229 281.534 231.23 279.618 229.314C277.701 227.398 277.7 224.29 279.614 222.372L289.146 212.824C291.061 210.907 294.166 210.905 296.083 212.821Z" fill="url(#paint21_radial_48_519)"/>
<path d="M480.69 106.897H404.935V290.15H480.69V106.897Z" fill="url(#paint22_linear_48_519)"/>
</g>
<path d="M324.275 83.4455C327.285 83.4455 329.725 81.0038 329.725 77.9916C329.725 74.9793 327.285 72.5376 324.275 72.5376C321.265 72.5376 318.825 74.9793 318.825 77.9916C318.825 81.0038 321.265 83.4455 324.275 83.4455Z" fill="url(#paint23_linear_48_519)"/>
<path d="M353.569 358.87H294.981C292.938 358.87 287.488 358.87 287.488 352.053H361.063C361.063 358.87 355.613 358.87 353.569 358.87Z" fill="url(#paint24_linear_48_519)"/>
</g>
</g>
<defs>
<linearGradient id="paint0_linear_48_519" x1="616.488" y1="32.9626" x2="447.998" y2="220.545" gradientUnits="userSpaceOnUse">
<stop stop-color="#144CDC"/>
<stop offset="1" stop-color="#4BFA91"/>
</linearGradient>
<linearGradient id="paint1_linear_48_519" x1="527.962" y1="-6.60204" x2="527.962" y2="258.165" gradientUnits="userSpaceOnUse">
<stop stop-color="white"/>
<stop offset="0.645" stop-color="#1754F0"/>
<stop offset="1" stop-color="#00113C"/>
</linearGradient>
<linearGradient id="paint2_linear_48_519" x1="527.96" y1="258.396" x2="527.96" y2="-7.93052" gradientUnits="userSpaceOnUse">
<stop stop-color="white"/>
<stop offset="0.645" stop-color="#1754F0"/>
<stop offset="1" stop-color="#00113C"/>
</linearGradient>
<linearGradient id="paint3_linear_48_519" x1="152.6" y1="307.33" x2="65.6031" y2="211.131" gradientUnits="userSpaceOnUse">
<stop stop-color="#144CDC"/>
<stop offset="1" stop-color="#4BFA91"/>
</linearGradient>
<linearGradient id="paint4_linear_48_519" x1="152.6" y1="307.33" x2="65.603" y2="211.131" gradientUnits="userSpaceOnUse">
<stop stop-color="#144CDC"/>
<stop offset="1" stop-color="#4BFA91"/>
</linearGradient>
<linearGradient id="paint5_linear_48_519" x1="152.6" y1="307.33" x2="65.6031" y2="211.131" gradientUnits="userSpaceOnUse">
<stop stop-color="#144CDC"/>
<stop offset="1" stop-color="#4BFA91"/>
</linearGradient>
<linearGradient id="paint6_linear_48_519" x1="152.6" y1="307.33" x2="65.6031" y2="211.131" gradientUnits="userSpaceOnUse">
<stop stop-color="#144CDC"/>
<stop offset="1" stop-color="#4BFA91"/>
</linearGradient>
<linearGradient id="paint7_linear_48_519" x1="152.6" y1="307.33" x2="65.6031" y2="211.131" gradientUnits="userSpaceOnUse">
<stop stop-color="#144CDC"/>
<stop offset="1" stop-color="#4BFA91"/>
</linearGradient>
<linearGradient id="paint8_linear_48_519" x1="152.6" y1="307.33" x2="65.603" y2="211.131" gradientUnits="userSpaceOnUse">
<stop stop-color="#144CDC"/>
<stop offset="1" stop-color="#4BFA91"/>
</linearGradient>
<linearGradient id="paint9_linear_48_519" x1="152.6" y1="307.33" x2="65.6031" y2="211.131" gradientUnits="userSpaceOnUse">
<stop stop-color="#144CDC"/>
<stop offset="1" stop-color="#4BFA91"/>
</linearGradient>
<linearGradient id="paint10_linear_48_519" x1="152.6" y1="307.33" x2="65.6031" y2="211.131" gradientUnits="userSpaceOnUse">
<stop stop-color="#144CDC"/>
<stop offset="1" stop-color="#4BFA91"/>
</linearGradient>
<linearGradient id="paint11_linear_48_519" x1="152.6" y1="307.33" x2="65.603" y2="211.131" gradientUnits="userSpaceOnUse">
<stop stop-color="#144CDC"/>
<stop offset="1" stop-color="#4BFA91"/>
</linearGradient>
<linearGradient id="paint12_linear_48_519" x1="324.82" y1="404.411" x2="324.82" y2="-10.0898" gradientUnits="userSpaceOnUse">
<stop stop-color="white"/>
<stop offset="0.645" stop-color="#1754F0"/>
<stop offset="1" stop-color="#00113C"/>
</linearGradient>
<linearGradient id="paint13_linear_48_519" x1="324.275" y1="302.422" x2="324.275" y2="367.051" gradientUnits="userSpaceOnUse">
<stop stop-color="white"/>
<stop offset="0.645" stop-color="#1754F0"/>
<stop offset="1" stop-color="#00113C"/>
</linearGradient>
<linearGradient id="paint14_linear_48_519" x1="324.275" y1="351.235" x2="324.275" y2="292.877" gradientUnits="userSpaceOnUse">
<stop stop-color="white"/>
<stop offset="0.645" stop-color="#1754F0"/>
<stop offset="1" stop-color="#00113C"/>
</linearGradient>
<linearGradient id="paint15_linear_48_519" x1="324.275" y1="295.059" x2="324.275" y2="335.691" gradientUnits="userSpaceOnUse">
<stop stop-color="white"/>
<stop offset="0.645" stop-color="#1754F0"/>
<stop offset="1" stop-color="#00113C"/>
</linearGradient>
<linearGradient id="paint16_linear_48_519" x1="324.275" y1="316.602" x2="324.275" y2="341.418" gradientUnits="userSpaceOnUse">
<stop stop-color="white"/>
<stop offset="0.645" stop-color="#1754F0"/>
<stop offset="1" stop-color="#00113C"/>
</linearGradient>
<linearGradient id="paint17_linear_48_519" x1="593.233" y1="35.4505" x2="83.9112" y2="446.318" gradientUnits="userSpaceOnUse">
<stop stop-color="white"/>
<stop offset="0.645" stop-color="#1754F0"/>
<stop offset="1" stop-color="#00113C"/>
</linearGradient>
<linearGradient id="paint18_linear_48_519" x1="167.315" y1="290.15" x2="378.092" y2="38.2054" gradientUnits="userSpaceOnUse">
<stop stop-color="#144CDC"/>
<stop offset="1" stop-color="#4BFA91"/>
</linearGradient>
<linearGradient id="paint19_linear_48_519" x1="524.018" y1="389.958" x2="305.337" y2="201.68" gradientUnits="userSpaceOnUse">
<stop stop-color="#4BFA91"/>
<stop offset="1" stop-color="#144CDC"/>
</linearGradient>
<linearGradient id="paint20_linear_48_519" x1="524.017" y1="389.958" x2="305.337" y2="201.681" gradientUnits="userSpaceOnUse">
<stop stop-color="#4BFA91"/>
<stop offset="1" stop-color="#144CDC"/>
</linearGradient>
<radialGradient id="paint21_radial_48_519" cx="0" cy="0" r="1" gradientUnits="userSpaceOnUse" gradientTransform="translate(304.11 202.342) rotate(-134.084) scale(172.733 172.73)">
<stop stop-color="#4BFA91"/>
<stop offset="1" stop-color="#144CDC"/>
</radialGradient>
<linearGradient id="paint22_linear_48_519" x1="445.538" y1="77.4461" x2="445.538" y2="320.692" gradientUnits="userSpaceOnUse">
<stop stop-color="white"/>
<stop offset="0.645" stop-color="#1754F0"/>
<stop offset="1" stop-color="#00113C"/>
</linearGradient>
<linearGradient id="paint23_linear_48_519" x1="324.219" y1="70.2448" x2="324.219" y2="85.6827" gradientUnits="userSpaceOnUse">
<stop stop-color="white"/>
<stop offset="0.645" stop-color="#1754F0"/>
<stop offset="1" stop-color="#00113C"/>
</linearGradient>
<linearGradient id="paint24_linear_48_519" x1="322.913" y1="324.238" x2="325.641" y2="360.779" gradientUnits="userSpaceOnUse">
<stop stop-color="white"/>
<stop offset="0.645" stop-color="#1754F0"/>
<stop offset="1" stop-color="#00113C"/>
</linearGradient>
<clipPath id="clip0_48_519">
<rect width="654" height="367" fill="white"/>
</clipPath>
</defs>
</svg>
