<svg width="25" height="24" viewBox="0 0 25 24" fill="none" xmlns="http://www.w3.org/2000/svg">
<g clip-path="url(#clip0_12_1368)">
<path fill-rule="evenodd" clip-rule="evenodd" d="M7.70001 12C7.70001 9.34898 9.84904 7.19995 12.5 7.19995C15.1509 7.19995 17.3 9.34898 17.3 12C17.3 14.6509 15.1509 16.8 12.5 16.8C9.84904 16.8 7.70001 14.6509 7.70001 12Z" fill="black"/>
<path fill-rule="evenodd" clip-rule="evenodd" d="M12.5 0C13.1627 0 13.7 0.537264 13.7 1.2V3.6C13.7 4.26274 13.1627 4.8 12.5 4.8C11.8372 4.8 11.3 4.26274 11.3 3.6V1.2C11.3 0.537264 11.8372 0 12.5 0Z" fill="black"/>
<path fill-rule="evenodd" clip-rule="evenodd" d="M21.7485 2.75137C22.2171 3.22001 22.2171 3.9798 21.7485 4.44843L19.3485 6.84843C18.8799 7.31706 18.1201 7.31706 17.6515 6.84843C17.1829 6.3798 17.1829 5.62001 17.6515 5.15137L20.0515 2.75137C20.5201 2.28275 21.2799 2.28275 21.7485 2.75137Z" fill="black"/>
<path fill-rule="evenodd" clip-rule="evenodd" d="M19.7 12C19.7 11.3373 20.2373 10.8 20.9 10.8H23.3C23.9628 10.8 24.5 11.3373 24.5 12C24.5 12.6628 23.9628 13.2 23.3 13.2H20.9C20.2373 13.2 19.7 12.6628 19.7 12Z" fill="black"/>
<path fill-rule="evenodd" clip-rule="evenodd" d="M17.6515 17.1515C18.1201 16.6829 18.8799 16.6829 19.3485 17.1515L21.7485 19.5515C22.2171 20.0201 22.2171 20.7799 21.7485 21.2485C21.2799 21.7171 20.5201 21.7171 20.0515 21.2485L17.6515 18.8485C17.1829 18.3799 17.1829 17.6201 17.6515 17.1515Z" fill="black"/>
<path fill-rule="evenodd" clip-rule="evenodd" d="M12.5 19.2C13.1627 19.2 13.7 19.7372 13.7 20.4V22.8C13.7 23.4627 13.1627 24 12.5 24C11.8372 24 11.3 23.4627 11.3 22.8V20.4C11.3 19.7372 11.8372 19.2 12.5 19.2Z" fill="black"/>
<path fill-rule="evenodd" clip-rule="evenodd" d="M7.34856 17.1515C7.81718 17.6201 7.81718 18.3799 7.34856 18.8485L4.94856 21.2485C4.47992 21.7171 3.72013 21.7171 3.25149 21.2485C2.78287 20.7799 2.78287 20.0201 3.25149 19.5515L5.65149 17.1515C6.12013 16.6829 6.87992 16.6829 7.34856 17.1515Z" fill="black"/>
<path fill-rule="evenodd" clip-rule="evenodd" d="M0.5 12C0.5 11.3373 1.03726 10.8 1.7 10.8H4.1C4.76274 10.8 5.3 11.3373 5.3 12C5.3 12.6628 4.76274 13.2 4.1 13.2H1.7C1.03726 13.2 0.5 12.6628 0.5 12Z" fill="black"/>
<path fill-rule="evenodd" clip-rule="evenodd" d="M3.25149 2.75137C3.72013 2.28275 4.47992 2.28275 4.94856 2.75137L7.34856 5.15137C7.81718 5.62001 7.81718 6.3798 7.34856 6.84843C6.87992 7.31706 6.12013 7.31706 5.65149 6.84843L3.25149 4.44843C2.78287 3.9798 2.78287 3.22001 3.25149 2.75137Z" fill="black"/>
</g>
<defs>
<clipPath id="clip0_12_1368">
<rect width="24" height="24" fill="white" transform="translate(0.5)"/>
</clipPath>
</defs>
</svg>
