<svg width="24" height="25" viewBox="0 0 24 25" fill="none" xmlns="http://www.w3.org/2000/svg">
<path d="M2 8.09997V4.09998C2 3.56954 2.21071 3.06083 2.58579 2.68576C2.96086 2.31069 3.46957 2.09998 4 2.09998H20C20.5304 2.09998 21.0391 2.31069 21.4142 2.68576C21.7893 3.06083 22 3.56954 22 4.09998V8.09997H2ZM16 10.1V22.1H20C20.5304 22.1 21.0391 21.8893 21.4142 21.5142C21.7893 21.1391 22 20.6304 22 20.1V10.1H16Z" fill="black"/>
<path d="M14 10.1H2V20.1C2 20.6304 2.21071 21.1391 2.58579 21.5142C2.96086 21.8893 3.46957 22.1 4 22.1H14V10.1Z" fill="#376BF2"/>
</svg>
